<svg version="1.1" viewBox="0.0 0.0 464.6010498687664 202.9763779527559" fill="none" stroke="none" stroke-linecap="square" stroke-miterlimit="10" xmlns:xlink="http://www.w3.org/1999/xlink" xmlns="http://www.w3.org/2000/svg"><clipPath id="p.0"><path d="m0 0l464.60104 0l0 202.97638l-464.60104 0l0 -202.97638z" clip-rule="nonzero"/></clipPath><g clip-path="url(#p.0)"><path fill="#000000" fill-opacity="0.0" d="m0 0l464.60104 0l0 202.97638l-464.60104 0z" fill-rule="evenodd"/><path fill="#cfe2f3" d="m362.13516 15.593176l31.24411 0l0 28.976377l-31.24411 0z" fill-rule="evenodd"/><path fill="#000000" d="m378.76273 33.82136l-0.9375 0l0 -5.968748q-0.34375 0.328125 -0.890625 0.65625q-0.546875 0.3125 -0.984375 0.46875l0 -0.90625q0.796875 -0.359375 1.375 -0.890625q0.59375 -0.53125 0.828125 -1.015625l0.609375 0l0 7.656248z" fill-rule="nonzero"/><path fill="#cfe2f3" d="m393.37927 15.593176l31.24408 0l0 28.976377l-31.24408 0z" fill-rule="evenodd"/><path fill="#000000" d="m411.39743 32.91511l0 0.90625l-5.03125 0q-0.015625 -0.34375 0.109375 -0.65625q0.1875 -0.515625 0.609375 -1.015625q0.421875 -0.4999981 1.234375 -1.1406231q1.234375 -1.03125 1.671875 -1.625q0.4375 -0.59375 0.4375 -1.125q0 -0.5625 -0.40625 -0.9375q-0.390625 -0.390625 -1.03125 -0.390625q-0.671875 0 -1.078125 0.40625q-0.40625 0.40625 -0.40625 1.125l-0.96875 -0.09375q0.09375 -1.078125 0.734375 -1.640625q0.65625 -0.5625 1.734375 -0.5625q1.109375 0 1.75 0.609375q0.640625 0.609375 0.640625 1.5q0 0.46875 -0.1875 0.90625q-0.1875 0.4375 -0.625 0.9375q-0.4375 0.484375 -1.453125 1.328125q-0.828125 0.7187481 -1.078125 0.9687481q-0.234375 0.25 -0.390625 0.5l3.734375 0z" fill-rule="nonzero"/><path fill="#cfe2f3" d="m424.62335 15.593176l31.24411 0l0 28.976377l-31.24411 0z" fill-rule="evenodd"/><path fill="#000000" d="m437.7353 31.805738l0.9375 -0.125q0.15625 0.7968731 0.546875 1.1562481q0.390625 0.34375 0.9375 0.34375q0.65625 0 1.109375 -0.453125q0.46875 -0.46875 0.46875 -1.1406231q0 -0.640625 -0.421875 -1.0625q-0.421875 -0.421875 -1.078125 -0.421875q-0.265625 0 -0.65625 0.109375l0.109375 -0.828125q0.09375 0.015625 0.140625 0.015625q0.59375 0 1.078125 -0.3125q0.484375 -0.3125 0.484375 -0.96875q0 -0.515625 -0.359375 -0.84375q-0.34375 -0.34375 -0.890625 -0.34375q-0.546875 0 -0.921875 0.34375q-0.359375 0.34375 -0.453125 1.03125l-0.9375 -0.171875q0.171875 -0.9375 0.78125 -1.453125q0.609375 -0.515625 1.5 -0.515625q0.625 0 1.15625 0.265625q0.53125 0.265625 0.796875 0.734375q0.28125 0.453125 0.28125 0.984375q0 0.484375 -0.265625 0.890625q-0.265625 0.40625 -0.78125 0.65625q0.671875 0.15625 1.046875 0.65625q0.375 0.484375 0.375 1.21875q0 0.9999981 -0.734375 1.7031231q-0.71875 0.6875 -1.828125 0.6875q-1.0 0 -1.671875 -0.59375q-0.65625 -0.609375 -0.75 -1.5624981z" fill-rule="nonzero"/><path fill="#cfe2f3" d="m330.89108 44.569553l31.24408 0l0 28.976376l-31.24408 0z" fill-rule="evenodd"/><path fill="#000000" d="m346.98737 62.79774l0 -1.828125l-3.296875 0l0 -0.859375l3.46875 -4.9375l0.765625 0l0 4.9375l1.03125 0l0 0.859375l-1.03125 0l0 1.828125l-0.9375 0zm0 -2.6875l0 -3.4375l-2.375 3.4375l2.375 0z" fill-rule="nonzero"/><path fill="#cfe2f3" d="m393.37927 44.569553l31.24408 0l0 28.976376l-31.24408 0z" fill-rule="evenodd"/><path fill="#000000" d="m411.33493 57.032116l-0.921875 0.078125q-0.125 -0.546875 -0.359375 -0.796875q-0.375 -0.40625 -0.9375 -0.40625q-0.4375 0 -0.78125 0.25q-0.4375 0.328125 -0.703125 0.953125q-0.25 0.609375 -0.265625 1.75q0.34375 -0.515625 0.828125 -0.765625q0.5 -0.25 1.03125 -0.25q0.9375 0 1.59375 0.703125q0.65625 0.6875 0.65625 1.765625q0 0.71875 -0.3125 1.34375q-0.3125 0.609375 -0.859375 0.9375q-0.53125 0.328125 -1.21875 0.328125q-1.171875 0 -1.90625 -0.859375q-0.734375 -0.859375 -0.734375 -2.828125q0 -2.21875 0.8125 -3.21875q0.71875 -0.875 1.921875 -0.875q0.890625 0 1.46875 0.5q0.578125 0.5 0.6875 1.390625zm-3.8125 3.296875q0 0.484375 0.203125 0.921875q0.203125 0.4375 0.5625 0.671875q0.375 0.234375 0.78125 0.234375q0.59375 0 1.015625 -0.46875q0.4375 -0.484375 0.4375 -1.3125q0 -0.78125 -0.421875 -1.234375q-0.421875 -0.46875 -1.0625 -0.46875q-0.640625 0 -1.078125 0.46875q-0.4375 0.453125 -0.4375 1.1875z" fill-rule="nonzero"/><path fill="#cfe2f3" d="m424.62335 44.569553l31.24411 0l0 28.976376l-31.24411 0z" fill-rule="evenodd"/><path fill="#000000" d="m437.78217 56.17274l0 -0.90625l4.9375 0l0 0.734375q-0.71875 0.765625 -1.4375 2.0625q-0.71875 1.28125 -1.109375 2.640625q-0.28125 0.953125 -0.359375 2.09375l-0.953125 0q0.015625 -0.90625 0.34375 -2.171875q0.34375 -1.28125 0.96875 -2.453125q0.640625 -1.1875 1.34375 -2.0l-3.734375 0z" fill-rule="nonzero"/><path fill="#cfe2f3" d="m330.89108 73.54593l31.24408 0l0 28.97638l-31.24408 0z" fill-rule="evenodd"/><path fill="#000000" d="m345.4405 87.63349q-0.59375 -0.203125 -0.875 -0.59375q-0.28125 -0.40625 -0.28125 -0.953125q0 -0.84375 0.59375 -1.40625q0.609375 -0.5625 1.59375 -0.5625q1.0 0 1.609375 0.578125q0.609375 0.578125 0.609375 1.40625q0 0.53125 -0.28125 0.9375q-0.265625 0.390625 -0.84375 0.59375q0.703125 0.234375 1.0625 0.75q0.375 0.5 0.375 1.203125q0 0.984375 -0.6875 1.65625q-0.6875 0.65625 -1.828125 0.65625q-1.125 0 -1.8125 -0.65625q-0.6875 -0.671875 -0.6875 -1.671875q0 -0.75 0.375 -1.25q0.375 -0.5 1.078125 -0.6875zm-0.1875 -1.578125q0 0.53125 0.34375 0.875q0.34375 0.34375 0.90625 0.34375q0.53125 0 0.875 -0.328125q0.359375 -0.34375 0.359375 -0.84375q0 -0.515625 -0.359375 -0.859375q-0.359375 -0.359375 -0.890625 -0.359375q-0.53125 0 -0.890625 0.34375q-0.34375 0.34375 -0.34375 0.828125zm-0.3125 3.515625q0 0.40625 0.1875 0.78125q0.203125 0.375 0.578125 0.578125q0.375 0.203125 0.796875 0.203125q0.671875 0 1.109375 -0.421875q0.4375 -0.4375 0.4375 -1.109375q0 -0.671875 -0.453125 -1.109375q-0.453125 -0.453125 -1.125 -0.453125q-0.65625 0 -1.09375 0.4375q-0.4375 0.4375 -0.4375 1.09375z" fill-rule="nonzero"/><path fill="#cfe2f3" d="m362.13516 44.569553l31.24411 0l0 28.976376l-31.24411 0z" fill-rule="evenodd"/><path fill="#000000" d="m375.23148 60.79774l0.984375 -0.078125q0.109375 0.71875 0.5 1.078125q0.40625 0.359375 0.96875 0.359375q0.671875 0 1.140625 -0.5q0.46875 -0.515625 0.46875 -1.359375q0 -0.796875 -0.453125 -1.265625q-0.4375 -0.46875 -1.171875 -0.46875q-0.453125 0 -0.8125 0.21875q-0.359375 0.203125 -0.578125 0.53125l-0.875 -0.125l0.734375 -3.921875l3.796875 0l0 0.90625l-3.046875 0l-0.40625 2.046875q0.6875 -0.484375 1.4375 -0.484375q1.0 0 1.6875 0.703125q0.6875 0.6875 0.6875 1.765625q0 1.046875 -0.609375 1.796875q-0.734375 0.921875 -2.0 0.921875q-1.03125 0 -1.703125 -0.578125q-0.65625 -0.578125 -0.75 -1.546875z" fill-rule="nonzero"/><path fill="#cfe2f3" d="m393.37927 73.54593l31.24408 0l0 28.97638l-31.24408 0z" fill-rule="evenodd"/><path fill="#000000" d="m407.04358 91.77412l-0.9375 0l0 -5.96875q-0.34375 0.328125 -0.890625 0.65625q-0.546875 0.3125 -0.984375 0.46875l0 -0.90625q0.796875 -0.359375 1.375 -0.890625q0.59375 -0.53125 0.828125 -1.015625l0.609375 0l0 7.65625zm2.3952332 -3.765625q0 -1.34375 0.28125 -2.171875q0.28125 -0.828125 0.828125 -1.265625q0.546875 -0.453125 1.375 -0.453125q0.625 0 1.078125 0.25q0.46875 0.234375 0.765625 0.703125q0.3125 0.46875 0.484375 1.140625q0.171875 0.671875 0.171875 1.796875q0 1.34375 -0.28125 2.171875q-0.28125 0.828125 -0.828125 1.28125q-0.546875 0.4375 -1.390625 0.4375q-1.09375 0 -1.71875 -0.78125q-0.765625 -0.953125 -0.765625 -3.109375zm0.96875 0q0 1.875 0.4375 2.5q0.4375 0.625 1.078125 0.625q0.65625 0 1.09375 -0.625q0.4375 -0.625 0.4375 -2.5q0 -1.875 -0.4375 -2.5q-0.4375 -0.625 -1.09375 -0.625q-0.640625 0 -1.03125 0.546875q-0.484375 0.703125 -0.484375 2.578125z" fill-rule="nonzero"/><path fill="#cfe2f3" d="m424.62335 73.54593l31.24411 0l0 28.97638l-31.24411 0z" fill-rule="evenodd"/><path fill="#000000" d="m438.6835 91.77412l-0.9375 0l0 -5.96875q-0.34375 0.328125 -0.890625 0.65625q-0.546875 0.3125 -0.984375 0.46875l0 -0.90625q0.796875 -0.359375 1.375 -0.890625q0.59375 -0.53125 0.828125 -1.015625l0.609375 0l0 7.65625zm5.1348267 0l-0.9375 0l0 -5.96875q-0.34375 0.328125 -0.890625 0.65625q-0.546875 0.3125 -0.984375 0.46875l0 -0.90625q0.796875 -0.359375 1.375 -0.890625q0.59375 -0.53125 0.828125 -1.015625l0.609375 0l0 7.65625z" fill-rule="nonzero"/><path fill="#cfe2f3" d="m330.89108 102.52231l31.24408 0l0 28.97638l-31.24408 0z" fill-rule="evenodd"/><path fill="#000000" d="m344.5554 120.750496l-0.9375 0l0 -5.96875q-0.34375 0.328125 -0.890625 0.65625q-0.546875 0.3125 -0.984375 0.46875l0 -0.90625q0.796875 -0.359375 1.375 -0.890625q0.59375 -0.53125 0.828125 -1.015625l0.609375 0l0 7.65625zm7.317108 -0.90625l0 0.90625l-5.03125 0q-0.015625 -0.34375 0.109375 -0.65625q0.1875 -0.515625 0.609375 -1.015625q0.421875 -0.5 1.234375 -1.140625q1.234375 -1.03125 1.671875 -1.625q0.4375 -0.59375 0.4375 -1.125q0 -0.5625 -0.40625 -0.9375q-0.390625 -0.390625 -1.03125 -0.390625q-0.671875 0 -1.078125 0.40625q-0.40625 0.40625 -0.40625 1.125l-0.96875 -0.09375q0.09375 -1.078125 0.734375 -1.640625q0.65625 -0.5625 1.734375 -0.5625q1.109375 0 1.75 0.609375q0.640625 0.609375 0.640625 1.5q0 0.46875 -0.1875 0.90625q-0.1875 0.4375 -0.625 0.9375q-0.4375 0.484375 -1.453125 1.328125q-0.828125 0.71875 -1.078125 0.96875q-0.234375 0.25 -0.390625 0.5l3.734375 0z" fill-rule="nonzero"/><path fill="#cfe2f3" d="m362.13516 73.54593l31.24411 0l0 28.97638l-31.24411 0z" fill-rule="evenodd"/><path fill="#000000" d="m375.3721 90.00849l0.90625 -0.078125q0.109375 0.625 0.4375 0.921875q0.328125 0.28125 0.828125 0.28125q0.421875 0 0.75 -0.1875q0.328125 -0.203125 0.53125 -0.53125q0.21875 -0.34375 0.359375 -0.890625q0.140625 -0.5625 0.140625 -1.15625q0 -0.0625 -0.015625 -0.1875q-0.28125 0.453125 -0.765625 0.734375q-0.484375 0.265625 -1.046875 0.265625q-0.953125 0 -1.609375 -0.671875q-0.65625 -0.6875 -0.65625 -1.8125q0 -1.171875 0.6875 -1.875q0.6875 -0.703125 1.71875 -0.703125q0.734375 0 1.34375 0.40625q0.625 0.390625 0.9375 1.140625q0.328125 0.734375 0.328125 2.140625q0 1.453125 -0.3125 2.328125q-0.3125 0.859375 -0.953125 1.3125q-0.625 0.453125 -1.46875 0.453125q-0.890625 0 -1.453125 -0.484375q-0.5625 -0.5 -0.6875 -1.40625zm3.84375 -3.359375q0 -0.8125 -0.4375 -1.28125q-0.421875 -0.484375 -1.03125 -0.484375q-0.625 0 -1.09375 0.515625q-0.453125 0.515625 -0.453125 1.328125q0 0.71875 0.4375 1.1875q0.4375 0.453125 1.078125 0.453125q0.65625 0 1.078125 -0.453125q0.421875 -0.46875 0.421875 -1.265625z" fill-rule="nonzero"/><path fill="#cfe2f3" d="m393.37927 102.52231l31.24408 0l0 28.97638l-31.24408 0z" fill-rule="evenodd"/><path fill="#000000" d="m407.04358 120.750496l-0.9375 0l0 -5.96875q-0.34375 0.328125 -0.890625 0.65625q-0.546875 0.3125 -0.984375 0.46875l0 -0.90625q0.796875 -0.359375 1.375 -0.890625q0.59375 -0.53125 0.828125 -1.015625l0.609375 0l0 7.65625zm5.395233 0l0 -1.828125l-3.296875 0l0 -0.859375l3.46875 -4.9375l0.765625 0l0 4.9375l1.03125 0l0 0.859375l-1.03125 0l0 1.828125l-0.9375 0zm0 -2.6875l0 -3.4375l-2.375 3.4375l2.375 0z" fill-rule="nonzero"/><path fill="#cfe2f3" d="m424.62335 102.52231l31.24411 0l0 28.97638l-31.24411 0z" fill-rule="evenodd"/><path fill="#000000" d="m438.28766 120.750496l-0.9375 0l0 -5.96875q-0.34375 0.328125 -0.890625 0.65625q-0.546875 0.3125 -0.984375 0.46875l0 -0.90625q0.796875 -0.359375 1.375 -0.890625q0.59375 -0.53125 0.828125 -1.015625l0.609375 0l0 7.65625zm2.3952332 -2.0l0.984375 -0.078125q0.109375 0.71875 0.5 1.078125q0.40625 0.359375 0.96875 0.359375q0.671875 0 1.140625 -0.5q0.46875 -0.515625 0.46875 -1.359375q0 -0.796875 -0.453125 -1.265625q-0.4375 -0.46875 -1.171875 -0.46875q-0.453125 0 -0.8125 0.21875q-0.359375 0.203125 -0.578125 0.53125l-0.875 -0.125l0.734375 -3.921875l3.796875 0l0 0.90625l-3.046875 0l-0.40625 2.046875q0.6875 -0.484375 1.4375 -0.484375q1.0 0 1.6875 0.703125q0.6875 0.6875 0.6875 1.765625q0 1.046875 -0.609375 1.796875q-0.734375 0.921875 -2.0 0.921875q-1.03125 0 -1.703125 -0.578125q-0.65625 -0.578125 -0.75 -1.546875z" fill-rule="nonzero"/><path fill="#cfe2f3" d="m330.89108 131.49869l31.24408 0l0 28.97638l-31.24408 0z" fill-rule="evenodd"/><path stroke="#666666" stroke-width="1.0" stroke-linejoin="round" stroke-linecap="butt" d="m330.89108 131.49869l31.24408 0l0 28.97638l-31.24408 0z" fill-rule="evenodd"/><path fill="#000000" d="m344.5554 149.72687l-0.9375 0l0 -5.96875q-0.34375 0.328125 -0.890625 0.65625q-0.546875 0.3125 -0.984375 0.46875l0 -0.90625q0.796875 -0.359375 1.375 -0.890625q0.59375 -0.53125 0.828125 -1.015625l0.609375 0l0 7.65625zm7.254608 -5.765625l-0.921875 0.078125q-0.125 -0.546875 -0.359375 -0.796875q-0.375 -0.40625 -0.9375 -0.40625q-0.4375 0 -0.78125 0.25q-0.4375 0.328125 -0.703125 0.953125q-0.25 0.609375 -0.265625 1.75q0.34375 -0.515625 0.828125 -0.765625q0.5 -0.25 1.03125 -0.25q0.9375 0 1.59375 0.703125q0.65625 0.6875 0.65625 1.765625q0 0.71875 -0.3125 1.34375q-0.3125 0.609375 -0.859375 0.9375q-0.53125 0.328125 -1.21875 0.328125q-1.171875 0 -1.90625 -0.859375q-0.734375 -0.859375 -0.734375 -2.828125q0 -2.21875 0.8125 -3.21875q0.71875 -0.875 1.921875 -0.875q0.890625 0 1.46875 0.5q0.578125 0.5 0.6875 1.390625zm-3.8125 3.296875q0 0.484375 0.203125 0.921875q0.203125 0.4375 0.5625 0.671875q0.375 0.234375 0.78125 0.234375q0.59375 0 1.015625 -0.46875q0.4375 -0.484375 0.4375 -1.3125q0 -0.78125 -0.421875 -1.234375q-0.421875 -0.46875 -1.0625 -0.46875q-0.640625 0 -1.078125 0.46875q-0.4375 0.453125 -0.4375 1.1875z" fill-rule="nonzero"/><path fill="#cfe2f3" d="m362.13516 102.52231l31.24411 0l0 28.97638l-31.24411 0z" fill-rule="evenodd"/><path fill="#000000" d="m375.79947 120.750496l-0.9375 0l0 -5.96875q-0.34375 0.328125 -0.890625 0.65625q-0.546875 0.3125 -0.984375 0.46875l0 -0.90625q0.796875 -0.359375 1.375 -0.890625q0.59375 -0.53125 0.828125 -1.015625l0.609375 0l0 7.65625zm2.4108887 -2.015625l0.9375 -0.125q0.15625 0.796875 0.546875 1.15625q0.390625 0.34375 0.9375 0.34375q0.65625 0 1.109375 -0.453125q0.46875 -0.46875 0.46875 -1.140625q0 -0.640625 -0.421875 -1.0625q-0.421875 -0.421875 -1.078125 -0.421875q-0.265625 0 -0.65625 0.109375l0.109375 -0.828125q0.09375 0.015625 0.140625 0.015625q0.59375 0 1.078125 -0.3125q0.484375 -0.3125 0.484375 -0.96875q0 -0.515625 -0.359375 -0.84375q-0.34375 -0.34375 -0.890625 -0.34375q-0.546875 0 -0.921875 0.34375q-0.359375 0.34375 -0.453125 1.03125l-0.9375 -0.171875q0.171875 -0.9375 0.78125 -1.453125q0.609375 -0.515625 1.5 -0.515625q0.625 0 1.15625 0.265625q0.53125 0.265625 0.796875 0.734375q0.28125 0.453125 0.28125 0.984375q0 0.484375 -0.265625 0.890625q-0.265625 0.40625 -0.78125 0.65625q0.671875 0.15625 1.046875 0.65625q0.375 0.484375 0.375 1.21875q0 1.0 -0.734375 1.703125q-0.71875 0.6875 -1.828125 0.6875q-1.0 0 -1.671875 -0.59375q-0.65625 -0.609375 -0.75 -1.5625z" fill-rule="nonzero"/><path fill="#cfe2f3" d="m393.37927 131.49869l31.24408 0l0 28.97638l-31.24408 0z" fill-rule="evenodd"/><path stroke="#666666" stroke-width="1.0" stroke-linejoin="round" stroke-linecap="butt" d="m393.37927 131.49869l31.24408 0l0 28.97638l-31.24408 0z" fill-rule="evenodd"/><path fill="#000000" d="m407.04358 149.72687l-0.9375 0l0 -5.96875q-0.34375 0.328125 -0.890625 0.65625q-0.546875 0.3125 -0.984375 0.46875l0 -0.90625q0.796875 -0.359375 1.375 -0.890625q0.59375 -0.53125 0.828125 -1.015625l0.609375 0l0 7.65625zm3.8483582 -4.140625q-0.59375 -0.203125 -0.875 -0.59375q-0.28125 -0.40625 -0.28125 -0.953125q0 -0.84375 0.59375 -1.40625q0.609375 -0.5625 1.59375 -0.5625q1.0 0 1.609375 0.578125q0.609375 0.578125 0.609375 1.40625q0 0.53125 -0.28125 0.9375q-0.265625 0.390625 -0.84375 0.59375q0.703125 0.234375 1.0625 0.75q0.375 0.5 0.375 1.203125q0 0.984375 -0.6875 1.65625q-0.6875 0.65625 -1.828125 0.65625q-1.125 0 -1.8125 -0.65625q-0.6875 -0.671875 -0.6875 -1.671875q0 -0.75 0.375 -1.25q0.375 -0.5 1.078125 -0.6875zm-0.1875 -1.578125q0 0.53125 0.34375 0.875q0.34375 0.34375 0.90625 0.34375q0.53125 0 0.875 -0.328125q0.359375 -0.34375 0.359375 -0.84375q0 -0.515625 -0.359375 -0.859375q-0.359375 -0.359375 -0.890625 -0.359375q-0.53125 0 -0.890625 0.34375q-0.34375 0.34375 -0.34375 0.828125zm-0.3125 3.515625q0 0.40625 0.1875 0.78125q0.203125 0.375 0.578125 0.578125q0.375 0.203125 0.796875 0.203125q0.671875 0 1.109375 -0.421875q0.4375 -0.4375 0.4375 -1.109375q0 -0.671875 -0.453125 -1.109375q-0.453125 -0.453125 -1.125 -0.453125q-0.65625 0 -1.09375 0.4375q-0.4375 0.4375 -0.4375 1.09375z" fill-rule="nonzero"/><path fill="#cfe2f3" d="m424.62335 131.49869l31.24411 0l0 28.97638l-31.24411 0z" fill-rule="evenodd"/><path stroke="#666666" stroke-width="1.0" stroke-linejoin="round" stroke-linecap="butt" d="m424.62335 131.49869l31.24411 0l0 28.97638l-31.24411 0z" fill-rule="evenodd"/><path fill="#000000" d="m438.28766 149.72687l-0.9375 0l0 -5.96875q-0.34375 0.328125 -0.890625 0.65625q-0.546875 0.3125 -0.984375 0.46875l0 -0.90625q0.796875 -0.359375 1.375 -0.890625q0.59375 -0.53125 0.828125 -1.015625l0.609375 0l0 7.65625zm2.5358582 -1.765625l0.90625 -0.078125q0.109375 0.625 0.4375 0.921875q0.328125 0.28125 0.828125 0.28125q0.421875 0 0.75 -0.1875q0.328125 -0.203125 0.53125 -0.53125q0.21875 -0.34375 0.359375 -0.890625q0.140625 -0.5625 0.140625 -1.15625q0 -0.0625 -0.015625 -0.1875q-0.28125 0.453125 -0.765625 0.734375q-0.484375 0.265625 -1.046875 0.265625q-0.953125 0 -1.609375 -0.671875q-0.65625 -0.6875 -0.65625 -1.8125q0 -1.171875 0.6875 -1.875q0.6875 -0.703125 1.71875 -0.703125q0.734375 0 1.34375 0.40625q0.625 0.390625 0.9375 1.140625q0.328125 0.734375 0.328125 2.140625q0 1.453125 -0.3125 2.328125q-0.3125 0.859375 -0.953125 1.3125q-0.625 0.453125 -1.46875 0.453125q-0.890625 0 -1.453125 -0.484375q-0.5625 -0.5 -0.6875 -1.40625zm3.84375 -3.359375q0 -0.8125 -0.4375 -1.28125q-0.421875 -0.484375 -1.03125 -0.484375q-0.625 0 -1.09375 0.515625q-0.453125 0.515625 -0.453125 1.328125q0 0.71875 0.4375 1.1875q0.4375 0.453125 1.078125 0.453125q0.65625 0 1.078125 -0.453125q0.421875 -0.46875 0.421875 -1.265625z" fill-rule="nonzero"/><path fill="#cfe2f3" d="m330.89108 160.47507l31.24408 0l0 28.97638l-31.24408 0z" fill-rule="evenodd"/><path stroke="#666666" stroke-width="1.0" stroke-linejoin="round" stroke-linecap="butt" d="m330.89108 160.47507l31.24408 0l0 28.97638l-31.24408 0z" fill-rule="evenodd"/><path fill="#000000" d="m345.946 177.797l0 0.90625l-5.03125 0q-0.015625 -0.34375 0.109375 -0.65625q0.1875 -0.515625 0.609375 -1.015625q0.421875 -0.5 1.234375 -1.140625q1.234375 -1.03125 1.671875 -1.625q0.4375 -0.59375 0.4375 -1.125q0 -0.5625 -0.40625 -0.9375q-0.390625 -0.390625 -1.03125 -0.390625q-0.671875 0 -1.078125 0.40625q-0.40625 0.40625 -0.40625 1.125l-0.96875 -0.09375q0.09375 -1.078125 0.734375 -1.640625q0.65625 -0.5625 1.734375 -0.5625q1.109375 0 1.75 0.609375q0.640625 0.609375 0.640625 1.5q0 0.46875 -0.1875 0.90625q-0.1875 0.4375 -0.625 0.9375q-0.4375 0.484375 -1.453125 1.328125q-0.828125 0.71875 -1.078125 0.96875q-0.234375 0.25 -0.390625 0.5l3.734375 0zm1.0046082 -2.859375q0 -1.34375 0.28125 -2.171875q0.28125 -0.828125 0.828125 -1.265625q0.546875 -0.453125 1.375 -0.453125q0.625 0 1.078125 0.25q0.46875 0.234375 0.765625 0.703125q0.3125 0.46875 0.484375 1.140625q0.171875 0.671875 0.171875 1.796875q0 1.34375 -0.28125 2.171875q-0.28125 0.828125 -0.828125 1.28125q-0.546875 0.4375 -1.390625 0.4375q-1.09375 0 -1.71875 -0.78125q-0.765625 -0.953125 -0.765625 -3.109375zm0.96875 0q0 1.875 0.4375 2.5q0.4375 0.625 1.078125 0.625q0.65625 0 1.09375 -0.625q0.4375 -0.625 0.4375 -2.5q0 -1.875 -0.4375 -2.5q-0.4375 -0.625 -1.09375 -0.625q-0.640625 0 -1.03125 0.546875q-0.484375 0.703125 -0.484375 2.578125z" fill-rule="nonzero"/><path fill="#cfe2f3" d="m362.13516 131.49869l31.24411 0l0 28.97638l-31.24411 0z" fill-rule="evenodd"/><path stroke="#666666" stroke-width="1.0" stroke-linejoin="round" stroke-linecap="butt" d="m362.13516 131.49869l31.24411 0l0 28.97638l-31.24411 0z" fill-rule="evenodd"/><path fill="#000000" d="m375.79947 149.72687l-0.9375 0l0 -5.96875q-0.34375 0.328125 -0.890625 0.65625q-0.546875 0.3125 -0.984375 0.46875l0 -0.90625q0.796875 -0.359375 1.375 -0.890625q0.59375 -0.53125 0.828125 -1.015625l0.609375 0l0 7.65625zm2.4577637 -6.625l0 -0.90625l4.9375 0l0 0.734375q-0.71875 0.765625 -1.4375 2.0625q-0.71875 1.28125 -1.109375 2.640625q-0.28125 0.953125 -0.359375 2.09375l-0.953125 0q0.015625 -0.90625 0.34375 -2.171875q0.34375 -1.28125 0.96875 -2.453125q0.640625 -1.1875 1.34375 -2.0l-3.734375 0z" fill-rule="nonzero"/><path fill="#cfe2f3" d="m393.37927 160.47507l31.24408 0l0 28.97638l-31.24408 0z" fill-rule="evenodd"/><path stroke="#666666" stroke-width="1.0" stroke-linejoin="round" stroke-linecap="butt" d="m393.37927 160.47507l31.24408 0l0 28.97638l-31.24408 0z" fill-rule="evenodd"/><path fill="#000000" d="m408.4342 177.797l0 0.90625l-5.03125 0q-0.015625 -0.34375 0.109375 -0.65625q0.1875 -0.515625 0.609375 -1.015625q0.421875 -0.5 1.234375 -1.140625q1.234375 -1.03125 1.671875 -1.625q0.4375 -0.59375 0.4375 -1.125q0 -0.5625 -0.40625 -0.9375q-0.390625 -0.390625 -1.03125 -0.390625q-0.671875 0 -1.078125 0.40625q-0.40625 0.40625 -0.40625 1.125l-0.96875 -0.09375q0.09375 -1.078125 0.734375 -1.640625q0.65625 -0.5625 1.734375 -0.5625q1.109375 0 1.75 0.609375q0.640625 0.609375 0.640625 1.5q0 0.46875 -0.1875 0.90625q-0.1875 0.4375 -0.625 0.9375q-0.4375 0.484375 -1.453125 1.328125q-0.828125 0.71875 -1.078125 0.96875q-0.234375 0.25 -0.390625 0.5l3.734375 0zm5.926483 0l0 0.90625l-5.03125 0q-0.015625 -0.34375 0.109375 -0.65625q0.1875 -0.515625 0.609375 -1.015625q0.421875 -0.5 1.234375 -1.140625q1.234375 -1.03125 1.671875 -1.625q0.4375 -0.59375 0.4375 -1.125q0 -0.5625 -0.40625 -0.9375q-0.390625 -0.390625 -1.03125 -0.390625q-0.671875 0 -1.078125 0.40625q-0.40625 0.40625 -0.40625 1.125l-0.96875 -0.09375q0.09375 -1.078125 0.734375 -1.640625q0.65625 -0.5625 1.734375 -0.5625q1.109375 0 1.75 0.609375q0.640625 0.609375 0.640625 1.5q0 0.46875 -0.1875 0.90625q-0.1875 0.4375 -0.625 0.9375q-0.4375 0.484375 -1.453125 1.328125q-0.828125 0.71875 -1.078125 0.96875q-0.234375 0.25 -0.390625 0.5l3.734375 0z" fill-rule="nonzero"/><path fill="#cfe2f3" d="m424.62335 160.47507l31.24411 0l0 28.97638l-31.24411 0z" fill-rule="evenodd"/><path stroke="#666666" stroke-width="1.0" stroke-linejoin="round" stroke-linecap="butt" d="m424.62335 160.47507l31.24411 0l0 28.97638l-31.24411 0z" fill-rule="evenodd"/><path fill="#000000" d="m439.67828 177.797l0 0.90625l-5.03125 0q-0.015625 -0.34375 0.109375 -0.65625q0.1875 -0.515625 0.609375 -1.015625q0.421875 -0.5 1.234375 -1.140625q1.234375 -1.03125 1.671875 -1.625q0.4375 -0.59375 0.4375 -1.125q0 -0.5625 -0.40625 -0.9375q-0.390625 -0.390625 -1.03125 -0.390625q-0.671875 0 -1.078125 0.40625q-0.40625 0.40625 -0.40625 1.125l-0.96875 -0.09375q0.09375 -1.078125 0.734375 -1.640625q0.65625 -0.5625 1.734375 -0.5625q1.109375 0 1.75 0.609375q0.640625 0.609375 0.640625 1.5q0 0.46875 -0.1875 0.90625q-0.1875 0.4375 -0.625 0.9375q-0.4375 0.484375 -1.453125 1.328125q-0.828125 0.71875 -1.078125 0.96875q-0.234375 0.25 -0.390625 0.5l3.734375 0zm1.0202332 -1.109375l0.9375 -0.125q0.15625 0.796875 0.546875 1.15625q0.390625 0.34375 0.9375 0.34375q0.65625 0 1.109375 -0.453125q0.46875 -0.46875 0.46875 -1.140625q0 -0.640625 -0.421875 -1.0625q-0.421875 -0.421875 -1.078125 -0.421875q-0.265625 0 -0.65625 0.109375l0.109375 -0.828125q0.09375 0.015625 0.140625 0.015625q0.59375 0 1.078125 -0.3125q0.484375 -0.3125 0.484375 -0.96875q0 -0.515625 -0.359375 -0.84375q-0.34375 -0.34375 -0.890625 -0.34375q-0.546875 0 -0.921875 0.34375q-0.359375 0.34375 -0.453125 1.03125l-0.9375 -0.171875q0.171875 -0.9375 0.78125 -1.453125q0.609375 -0.515625 1.5 -0.515625q0.625 0 1.15625 0.265625q0.53125 0.265625 0.796875 0.734375q0.28125 0.453125 0.28125 0.984375q0 0.484375 -0.265625 0.890625q-0.265625 0.40625 -0.78125 0.65625q0.671875 0.15625 1.046875 0.65625q0.375 0.484375 0.375 1.21875q0 1.0 -0.734375 1.703125q-0.71875 0.6875 -1.828125 0.6875q-1.0 0 -1.671875 -0.59375q-0.65625 -0.609375 -0.75 -1.5625z" fill-rule="nonzero"/><path fill="#cfe2f3" d="m330.89108 15.593176l31.24408 0l0 28.976377l-31.24408 0z" fill-rule="evenodd"/><path fill="#000000" d="m343.98737 30.055738q0 -1.34375 0.28125 -2.171875q0.28125 -0.828125 0.828125 -1.265625q0.546875 -0.453125 1.375 -0.453125q0.625 0 1.078125 0.25q0.46875 0.234375 0.765625 0.703125q0.3125 0.46875 0.484375 1.140625q0.171875 0.671875 0.171875 1.796875q0 1.34375 -0.28125 2.171873q-0.28125 0.828125 -0.828125 1.28125q-0.546875 0.4375 -1.390625 0.4375q-1.09375 0 -1.71875 -0.78125q-0.765625 -0.953125 -0.765625 -3.109373zm0.96875 0q0 1.875 0.4375 2.499998q0.4375 0.625 1.078125 0.625q0.65625 0 1.09375 -0.625q0.4375 -0.6249981 0.4375 -2.499998q0 -1.875 -0.4375 -2.5q-0.4375 -0.625 -1.09375 -0.625q-0.640625 0 -1.03125 0.546875q-0.484375 0.703125 -0.484375 2.578125z" fill-rule="nonzero"/><path fill="#cfe2f3" d="m362.13516 160.47507l31.24411 0l0 28.97638l-31.24411 0z" fill-rule="evenodd"/><path stroke="#666666" stroke-width="1.0" stroke-linejoin="round" stroke-linecap="butt" d="m362.13516 160.47507l31.24411 0l0 28.97638l-31.24411 0z" fill-rule="evenodd"/><path fill="#000000" d="m377.1901 177.797l0 0.90625l-5.03125 0q-0.015625 -0.34375 0.109375 -0.65625q0.1875 -0.515625 0.609375 -1.015625q0.421875 -0.5 1.234375 -1.140625q1.234375 -1.03125 1.671875 -1.625q0.4375 -0.59375 0.4375 -1.125q0 -0.5625 -0.40625 -0.9375q-0.390625 -0.390625 -1.03125 -0.390625q-0.671875 0 -1.078125 0.40625q-0.40625 0.40625 -0.40625 1.125l-0.96875 -0.09375q0.09375 -1.078125 0.734375 -1.640625q0.65625 -0.5625 1.734375 -0.5625q1.109375 0 1.75 0.609375q0.640625 0.609375 0.640625 1.5q0 0.46875 -0.1875 0.90625q-0.1875 0.4375 -0.625 0.9375q-0.4375 0.484375 -1.453125 1.328125q-0.828125 0.71875 -1.078125 0.96875q-0.234375 0.25 -0.390625 0.5l3.734375 0zm4.5358887 0.90625l-0.9375 0l0 -5.96875q-0.34375 0.328125 -0.890625 0.65625q-0.546875 0.3125 -0.984375 0.46875l0 -0.90625q0.796875 -0.359375 1.375 -0.890625q0.59375 -0.53125 0.828125 -1.015625l0.609375 0l0 7.65625z" fill-rule="nonzero"/><path fill="#cfe2f3" d="m202.12466 15.590551l31.244095 0l0 28.976377l-31.244095 0z" fill-rule="evenodd"/><path fill="#000000" d="m218.75221 33.818737l-0.9375 0l0 -5.968748q-0.34375 0.328125 -0.890625 0.65625q-0.546875 0.3125 -0.984375 0.46875l0 -0.90625q0.796875 -0.359375 1.375 -0.890625q0.59375 -0.53125 0.828125 -1.015625l0.609375 0l0 7.656248z" fill-rule="nonzero"/><path fill="#cfe2f3" d="m233.36876 15.590551l31.244095 0l0 28.976377l-31.244095 0z" fill-rule="evenodd"/><path fill="#000000" d="m251.38693 32.912487l0 0.90625l-5.03125 0q-0.015625 -0.34375 0.109375 -0.65625q0.1875 -0.515625 0.609375 -1.015625q0.421875 -0.4999981 1.234375 -1.1406231q1.234375 -1.03125 1.671875 -1.625q0.4375 -0.59375 0.4375 -1.125q0 -0.5625 -0.40625 -0.9375q-0.390625 -0.390625 -1.03125 -0.390625q-0.671875 0 -1.078125 0.40625q-0.40625 0.40625 -0.40625 1.125l-0.96875 -0.09375q0.09375 -1.078125 0.734375 -1.640625q0.65625 -0.5625 1.734375 -0.5625q1.109375 0 1.75 0.609375q0.640625 0.609375 0.640625 1.5q0 0.46875 -0.1875 0.90625q-0.1875 0.4375 -0.625 0.9375q-0.4375 0.484375 -1.453125 1.328125q-0.828125 0.7187481 -1.078125 0.9687481q-0.234375 0.25 -0.390625 0.5l3.734375 0z" fill-rule="nonzero"/><path fill="#cfe2f3" d="m264.61285 15.590551l31.24411 0l0 28.976377l-31.24411 0z" fill-rule="evenodd"/><path fill="#000000" d="m277.7248 31.803114l0.9375 -0.125q0.15625 0.7968731 0.546875 1.1562481q0.390625 0.34375 0.9375 0.34375q0.65625 0 1.109375 -0.453125q0.46875 -0.46875 0.46875 -1.1406231q0 -0.640625 -0.421875 -1.0625q-0.421875 -0.421875 -1.078125 -0.421875q-0.265625 0 -0.65625 0.109375l0.109375 -0.828125q0.09375 0.015625 0.140625 0.015625q0.59375 0 1.078125 -0.3125q0.484375 -0.3125 0.484375 -0.96875q0 -0.515625 -0.359375 -0.84375q-0.34375 -0.34375 -0.890625 -0.34375q-0.546875 0 -0.921875 0.34375q-0.359375 0.34375 -0.453125 1.03125l-0.9375 -0.171875q0.171875 -0.9375 0.78125 -1.453125q0.609375 -0.515625 1.5 -0.515625q0.625 0 1.15625 0.265625q0.53125 0.265625 0.796875 0.734375q0.28125 0.453125 0.28125 0.984375q0 0.484375 -0.265625 0.890625q-0.265625 0.40625 -0.78125 0.65625q0.671875 0.15625 1.046875 0.65625q0.375 0.484375 0.375 1.21875q0 0.9999981 -0.734375 1.7031231q-0.71875 0.6875 -1.828125 0.6875q-1.0 0 -1.671875 -0.59375q-0.65625 -0.609375 -0.75 -1.5624981z" fill-rule="nonzero"/><path fill="#cfe2f3" d="m170.88058 44.56693l31.24408 0l0 28.976376l-31.24408 0z" fill-rule="evenodd"/><path fill="#000000" d="m186.97688 62.795116l0 -1.828125l-3.296875 0l0 -0.859375l3.46875 -4.9375l0.765625 0l0 4.9375l1.03125 0l0 0.859375l-1.03125 0l0 1.828125l-0.9375 0zm0 -2.6875l0 -3.4375l-2.375 3.4375l2.375 0z" fill-rule="nonzero"/><path fill="#cfe2f3" d="m233.36876 44.56693l31.244095 0l0 28.976376l-31.244095 0z" fill-rule="evenodd"/><path fill="#000000" d="m251.32443 57.02949l-0.921875 0.078125q-0.125 -0.546875 -0.359375 -0.796875q-0.375 -0.40625 -0.9375 -0.40625q-0.4375 0 -0.78125 0.25q-0.4375 0.328125 -0.703125 0.953125q-0.25 0.609375 -0.265625 1.75q0.34375 -0.515625 0.828125 -0.765625q0.5 -0.25 1.03125 -0.25q0.9375 0 1.59375 0.703125q0.65625 0.6875 0.65625 1.765625q0 0.71875 -0.3125 1.34375q-0.3125 0.609375 -0.859375 0.9375q-0.53125 0.328125 -1.21875 0.328125q-1.171875 0 -1.90625 -0.859375q-0.734375 -0.859375 -0.734375 -2.828125q0 -2.21875 0.8125 -3.21875q0.71875 -0.875 1.921875 -0.875q0.890625 0 1.46875 0.5q0.578125 0.5 0.6875 1.390625zm-3.8125 3.296875q0 0.484375 0.203125 0.921875q0.203125 0.4375 0.5625 0.671875q0.375 0.234375 0.78125 0.234375q0.59375 0 1.015625 -0.46875q0.4375 -0.484375 0.4375 -1.3125q0 -0.78125 -0.421875 -1.234375q-0.421875 -0.46875 -1.0625 -0.46875q-0.640625 0 -1.078125 0.46875q-0.4375 0.453125 -0.4375 1.1875z" fill-rule="nonzero"/><path fill="#cfe2f3" d="m264.61285 44.56693l31.24411 0l0 28.976376l-31.24411 0z" fill-rule="evenodd"/><path fill="#000000" d="m277.77167 56.170116l0 -0.90625l4.9375 0l0 0.734375q-0.71875 0.765625 -1.4375 2.0625q-0.71875 1.28125 -1.109375 2.640625q-0.28125 0.953125 -0.359375 2.09375l-0.953125 0q0.015625 -0.90625 0.34375 -2.171875q0.34375 -1.28125 0.96875 -2.453125q0.640625 -1.1875 1.34375 -2.0l-3.734375 0z" fill-rule="nonzero"/><path fill="#cfe2f3" d="m170.88058 73.543304l31.24408 0l0 28.97638l-31.24408 0z" fill-rule="evenodd"/><path stroke="#666666" stroke-width="1.0" stroke-linejoin="round" stroke-linecap="butt" d="m170.88058 73.543304l31.24408 0l0 28.97638l-31.24408 0z" fill-rule="evenodd"/><path fill="#000000" d="m185.43001 87.63087q-0.59375 -0.203125 -0.875 -0.59375q-0.28125 -0.40625 -0.28125 -0.953125q0 -0.84375 0.59375 -1.40625q0.609375 -0.5625 1.59375 -0.5625q1.0 0 1.609375 0.578125q0.609375 0.578125 0.609375 1.40625q0 0.53125 -0.28125 0.9375q-0.265625 0.390625 -0.84375 0.59375q0.703125 0.234375 1.0625 0.75q0.375 0.5 0.375 1.203125q0 0.984375 -0.6875 1.65625q-0.6875 0.65625 -1.828125 0.65625q-1.125 0 -1.8125 -0.65625q-0.6875 -0.671875 -0.6875 -1.671875q0 -0.75 0.375 -1.25q0.375 -0.5 1.078125 -0.6875zm-0.1875 -1.578125q0 0.53125 0.34375 0.875q0.34375 0.34375 0.90625 0.34375q0.53125 0 0.875 -0.328125q0.359375 -0.34375 0.359375 -0.84375q0 -0.515625 -0.359375 -0.859375q-0.359375 -0.359375 -0.890625 -0.359375q-0.53125 0 -0.890625 0.34375q-0.34375 0.34375 -0.34375 0.828125zm-0.3125 3.515625q0 0.40625 0.1875 0.78125q0.203125 0.375 0.578125 0.578125q0.375 0.203125 0.796875 0.203125q0.671875 0 1.109375 -0.421875q0.4375 -0.4375 0.4375 -1.109375q0 -0.671875 -0.453125 -1.109375q-0.453125 -0.453125 -1.125 -0.453125q-0.65625 0 -1.09375 0.4375q-0.4375 0.4375 -0.4375 1.09375z" fill-rule="nonzero"/><path fill="#cfe2f3" d="m202.12466 44.56693l31.244095 0l0 28.976376l-31.244095 0z" fill-rule="evenodd"/><path fill="#000000" d="m215.22096 60.795116l0.984375 -0.078125q0.109375 0.71875 0.5 1.078125q0.40625 0.359375 0.96875 0.359375q0.671875 0 1.140625 -0.5q0.46875 -0.515625 0.46875 -1.359375q0 -0.796875 -0.453125 -1.265625q-0.4375 -0.46875 -1.171875 -0.46875q-0.453125 0 -0.8125 0.21875q-0.359375 0.203125 -0.578125 0.53125l-0.875 -0.125l0.734375 -3.921875l3.796875 0l0 0.90625l-3.046875 0l-0.40625 2.046875q0.6875 -0.484375 1.4375 -0.484375q1.0 0 1.6875 0.703125q0.6875 0.6875 0.6875 1.765625q0 1.046875 -0.609375 1.796875q-0.734375 0.921875 -2.0 0.921875q-1.03125 0 -1.703125 -0.578125q-0.65625 -0.578125 -0.75 -1.546875z" fill-rule="nonzero"/><path fill="#cfe2f3" d="m233.36876 73.543304l31.244095 0l0 28.97638l-31.244095 0z" fill-rule="evenodd"/><path stroke="#666666" stroke-width="1.0" stroke-linejoin="round" stroke-linecap="butt" d="m233.36876 73.543304l31.244095 0l0 28.97638l-31.244095 0z" fill-rule="evenodd"/><path fill="#000000" d="m247.03307 91.77149l-0.9375 0l0 -5.96875q-0.34375 0.328125 -0.890625 0.65625q-0.546875 0.3125 -0.984375 0.46875l0 -0.90625q0.796875 -0.359375 1.375 -0.890625q0.59375 -0.53125 0.828125 -1.015625l0.609375 0l0 7.65625zm2.3952484 -3.765625q0 -1.34375 0.28125 -2.171875q0.28125 -0.828125 0.828125 -1.265625q0.546875 -0.453125 1.375 -0.453125q0.625 0 1.078125 0.25q0.46875 0.234375 0.765625 0.703125q0.3125 0.46875 0.484375 1.140625q0.171875 0.671875 0.171875 1.796875q0 1.34375 -0.28125 2.171875q-0.28125 0.828125 -0.828125 1.28125q-0.546875 0.4375 -1.390625 0.4375q-1.09375 0 -1.71875 -0.78125q-0.765625 -0.953125 -0.765625 -3.109375zm0.96875 0q0 1.875 0.4375 2.5q0.4375 0.625 1.078125 0.625q0.65625 0 1.09375 -0.625q0.4375 -0.625 0.4375 -2.5q0 -1.875 -0.4375 -2.5q-0.4375 -0.625 -1.09375 -0.625q-0.640625 0 -1.03125 0.546875q-0.484375 0.703125 -0.484375 2.578125z" fill-rule="nonzero"/><path fill="#cfe2f3" d="m264.61285 73.543304l31.24411 0l0 28.97638l-31.24411 0z" fill-rule="evenodd"/><path stroke="#666666" stroke-width="1.0" stroke-linejoin="round" stroke-linecap="butt" d="m264.61285 73.543304l31.24411 0l0 28.97638l-31.24411 0z" fill-rule="evenodd"/><path fill="#000000" d="m278.673 91.77149l-0.9375 0l0 -5.96875q-0.34375 0.328125 -0.890625 0.65625q-0.546875 0.3125 -0.984375 0.46875l0 -0.90625q0.796875 -0.359375 1.375 -0.890625q0.59375 -0.53125 0.828125 -1.015625l0.609375 0l0 7.65625zm5.1348267 0l-0.9375 0l0 -5.96875q-0.34375 0.328125 -0.890625 0.65625q-0.546875 0.3125 -0.984375 0.46875l0 -0.90625q0.796875 -0.359375 1.375 -0.890625q0.59375 -0.53125 0.828125 -1.015625l0.609375 0l0 7.65625z" fill-rule="nonzero"/><path fill="#cfe2f3" d="m170.88058 102.519684l31.24408 0l0 28.97638l-31.24408 0z" fill-rule="evenodd"/><path stroke="#666666" stroke-width="1.0" stroke-linejoin="round" stroke-linecap="butt" d="m170.88058 102.519684l31.24408 0l0 28.97638l-31.24408 0z" fill-rule="evenodd"/><path fill="#000000" d="m184.54488 120.74787l-0.9375 0l0 -5.96875q-0.34375 0.328125 -0.890625 0.65625q-0.546875 0.3125 -0.984375 0.46875l0 -0.90625q0.796875 -0.359375 1.375 -0.890625q0.59375 -0.53125 0.828125 -1.015625l0.609375 0l0 7.65625zm7.3171234 -0.90625l0 0.90625l-5.03125 0q-0.015625 -0.34375 0.109375 -0.65625q0.1875 -0.515625 0.609375 -1.015625q0.421875 -0.5 1.234375 -1.140625q1.234375 -1.03125 1.671875 -1.625q0.4375 -0.59375 0.4375 -1.125q0 -0.5625 -0.40625 -0.9375q-0.390625 -0.390625 -1.03125 -0.390625q-0.671875 0 -1.078125 0.40625q-0.40625 0.40625 -0.40625 1.125l-0.96875 -0.09375q0.09375 -1.078125 0.734375 -1.640625q0.65625 -0.5625 1.734375 -0.5625q1.109375 0 1.75 0.609375q0.640625 0.609375 0.640625 1.5q0 0.46875 -0.1875 0.90625q-0.1875 0.4375 -0.625 0.9375q-0.4375 0.484375 -1.453125 1.328125q-0.828125 0.71875 -1.078125 0.96875q-0.234375 0.25 -0.390625 0.5l3.734375 0z" fill-rule="nonzero"/><path fill="#cfe2f3" d="m202.12466 73.543304l31.244095 0l0 28.97638l-31.244095 0z" fill-rule="evenodd"/><path stroke="#666666" stroke-width="1.0" stroke-linejoin="round" stroke-linecap="butt" d="m202.12466 73.543304l31.244095 0l0 28.97638l-31.244095 0z" fill-rule="evenodd"/><path fill="#000000" d="m215.36159 90.00587l0.90625 -0.078125q0.109375 0.625 0.4375 0.921875q0.328125 0.28125 0.828125 0.28125q0.421875 0 0.75 -0.1875q0.328125 -0.203125 0.53125 -0.53125q0.21875 -0.34375 0.359375 -0.890625q0.140625 -0.5625 0.140625 -1.15625q0 -0.0625 -0.015625 -0.1875q-0.28125 0.453125 -0.765625 0.734375q-0.484375 0.265625 -1.046875 0.265625q-0.953125 0 -1.609375 -0.671875q-0.65625 -0.6875 -0.65625 -1.8125q0 -1.171875 0.6875 -1.875q0.6875 -0.703125 1.71875 -0.703125q0.734375 0 1.34375 0.40625q0.625 0.390625 0.9375 1.140625q0.328125 0.734375 0.328125 2.140625q0 1.453125 -0.3125 2.328125q-0.3125 0.859375 -0.953125 1.3125q-0.625 0.453125 -1.46875 0.453125q-0.890625 0 -1.453125 -0.484375q-0.5625 -0.5 -0.6875 -1.40625zm3.84375 -3.359375q0 -0.8125 -0.4375 -1.28125q-0.421875 -0.484375 -1.03125 -0.484375q-0.625 0 -1.09375 0.515625q-0.453125 0.515625 -0.453125 1.328125q0 0.71875 0.4375 1.1875q0.4375 0.453125 1.078125 0.453125q0.65625 0 1.078125 -0.453125q0.421875 -0.46875 0.421875 -1.265625z" fill-rule="nonzero"/><path fill="#cfe2f3" d="m233.36876 102.519684l31.244095 0l0 28.97638l-31.244095 0z" fill-rule="evenodd"/><path stroke="#666666" stroke-width="1.0" stroke-linejoin="round" stroke-linecap="butt" d="m233.36876 102.519684l31.244095 0l0 28.97638l-31.244095 0z" fill-rule="evenodd"/><path fill="#000000" d="m247.03307 120.74787l-0.9375 0l0 -5.96875q-0.34375 0.328125 -0.890625 0.65625q-0.546875 0.3125 -0.984375 0.46875l0 -0.90625q0.796875 -0.359375 1.375 -0.890625q0.59375 -0.53125 0.828125 -1.015625l0.609375 0l0 7.65625zm5.3952484 0l0 -1.828125l-3.296875 0l0 -0.859375l3.46875 -4.9375l0.765625 0l0 4.9375l1.03125 0l0 0.859375l-1.03125 0l0 1.828125l-0.9375 0zm0 -2.6875l0 -3.4375l-2.375 3.4375l2.375 0z" fill-rule="nonzero"/><path fill="#cfe2f3" d="m264.61285 102.519684l31.24411 0l0 28.97638l-31.24411 0z" fill-rule="evenodd"/><path stroke="#666666" stroke-width="1.0" stroke-linejoin="round" stroke-linecap="butt" d="m264.61285 102.519684l31.24411 0l0 28.97638l-31.24411 0z" fill-rule="evenodd"/><path fill="#000000" d="m278.27716 120.74787l-0.9375 0l0 -5.96875q-0.34375 0.328125 -0.890625 0.65625q-0.546875 0.3125 -0.984375 0.46875l0 -0.90625q0.796875 -0.359375 1.375 -0.890625q0.59375 -0.53125 0.828125 -1.015625l0.609375 0l0 7.65625zm2.3952332 -2.0l0.984375 -0.078125q0.109375 0.71875 0.5 1.078125q0.40625 0.359375 0.96875 0.359375q0.671875 0 1.140625 -0.5q0.46875 -0.515625 0.46875 -1.359375q0 -0.796875 -0.453125 -1.265625q-0.4375 -0.46875 -1.171875 -0.46875q-0.453125 0 -0.8125 0.21875q-0.359375 0.203125 -0.578125 0.53125l-0.875 -0.125l0.734375 -3.921875l3.796875 0l0 0.90625l-3.046875 0l-0.40625 2.046875q0.6875 -0.484375 1.4375 -0.484375q1.0 0 1.6875 0.703125q0.6875 0.6875 0.6875 1.765625q0 1.046875 -0.609375 1.796875q-0.734375 0.921875 -2.0 0.921875q-1.03125 0 -1.703125 -0.578125q-0.65625 -0.578125 -0.75 -1.546875z" fill-rule="nonzero"/><path fill="#cfe2f3" d="m170.88058 131.49606l31.24408 0l0 28.97638l-31.24408 0z" fill-rule="evenodd"/><path fill="#000000" d="m184.54488 149.72424l-0.9375 0l0 -5.96875q-0.34375 0.328125 -0.890625 0.65625q-0.546875 0.3125 -0.984375 0.46875l0 -0.90625q0.796875 -0.359375 1.375 -0.890625q0.59375 -0.53125 0.828125 -1.015625l0.609375 0l0 7.65625zm7.2546234 -5.765625l-0.921875 0.078125q-0.125 -0.546875 -0.359375 -0.796875q-0.375 -0.40625 -0.9375 -0.40625q-0.4375 0 -0.78125 0.25q-0.4375 0.328125 -0.703125 0.953125q-0.25 0.609375 -0.265625 1.75q0.34375 -0.515625 0.828125 -0.765625q0.5 -0.25 1.03125 -0.25q0.9375 0 1.59375 0.703125q0.65625 0.6875 0.65625 1.765625q0 0.71875 -0.3125 1.34375q-0.3125 0.609375 -0.859375 0.9375q-0.53125 0.328125 -1.21875 0.328125q-1.171875 0 -1.90625 -0.859375q-0.734375 -0.859375 -0.734375 -2.828125q0 -2.21875 0.8125 -3.21875q0.71875 -0.875 1.921875 -0.875q0.890625 0 1.46875 0.5q0.578125 0.5 0.6875 1.390625zm-3.8125 3.296875q0 0.484375 0.203125 0.921875q0.203125 0.4375 0.5625 0.671875q0.375 0.234375 0.78125 0.234375q0.59375 0 1.015625 -0.46875q0.4375 -0.484375 0.4375 -1.3125q0 -0.78125 -0.421875 -1.234375q-0.421875 -0.46875 -1.0625 -0.46875q-0.640625 0 -1.078125 0.46875q-0.4375 0.453125 -0.4375 1.1875z" fill-rule="nonzero"/><path fill="#cfe2f3" d="m202.12466 102.519684l31.244095 0l0 28.97638l-31.244095 0z" fill-rule="evenodd"/><path stroke="#666666" stroke-width="1.0" stroke-linejoin="round" stroke-linecap="butt" d="m202.12466 102.519684l31.244095 0l0 28.97638l-31.244095 0z" fill-rule="evenodd"/><path fill="#000000" d="m215.78897 120.74787l-0.9375 0l0 -5.96875q-0.34375 0.328125 -0.890625 0.65625q-0.546875 0.3125 -0.984375 0.46875l0 -0.90625q0.796875 -0.359375 1.375 -0.890625q0.59375 -0.53125 0.828125 -1.015625l0.609375 0l0 7.65625zm2.4108734 -2.015625l0.9375 -0.125q0.15625 0.796875 0.546875 1.15625q0.390625 0.34375 0.9375 0.34375q0.65625 0 1.109375 -0.453125q0.46875 -0.46875 0.46875 -1.140625q0 -0.640625 -0.421875 -1.0625q-0.421875 -0.421875 -1.078125 -0.421875q-0.265625 0 -0.65625 0.109375l0.109375 -0.828125q0.09375 0.015625 0.140625 0.015625q0.59375 0 1.078125 -0.3125q0.484375 -0.3125 0.484375 -0.96875q0 -0.515625 -0.359375 -0.84375q-0.34375 -0.34375 -0.890625 -0.34375q-0.546875 0 -0.921875 0.34375q-0.359375 0.34375 -0.453125 1.03125l-0.9375 -0.171875q0.171875 -0.9375 0.78125 -1.453125q0.609375 -0.515625 1.5 -0.515625q0.625 0 1.15625 0.265625q0.53125 0.265625 0.796875 0.734375q0.28125 0.453125 0.28125 0.984375q0 0.484375 -0.265625 0.890625q-0.265625 0.40625 -0.78125 0.65625q0.671875 0.15625 1.046875 0.65625q0.375 0.484375 0.375 1.21875q0 1.0 -0.734375 1.703125q-0.71875 0.6875 -1.828125 0.6875q-1.0 0 -1.671875 -0.59375q-0.65625 -0.609375 -0.75 -1.5625z" fill-rule="nonzero"/><path fill="#cfe2f3" d="m233.36876 131.49606l31.244095 0l0 28.97638l-31.244095 0z" fill-rule="evenodd"/><path fill="#000000" d="m247.03307 149.72424l-0.9375 0l0 -5.96875q-0.34375 0.328125 -0.890625 0.65625q-0.546875 0.3125 -0.984375 0.46875l0 -0.90625q0.796875 -0.359375 1.375 -0.890625q0.59375 -0.53125 0.828125 -1.015625l0.609375 0l0 7.65625zm3.8483734 -4.140625q-0.59375 -0.203125 -0.875 -0.59375q-0.28125 -0.40625 -0.28125 -0.953125q0 -0.84375 0.59375 -1.40625q0.609375 -0.5625 1.59375 -0.5625q1.0 0 1.609375 0.578125q0.609375 0.578125 0.609375 1.40625q0 0.53125 -0.28125 0.9375q-0.265625 0.390625 -0.84375 0.59375q0.703125 0.234375 1.0625 0.75q0.375 0.5 0.375 1.203125q0 0.984375 -0.6875 1.65625q-0.6875 0.65625 -1.828125 0.65625q-1.125 0 -1.8125 -0.65625q-0.6875 -0.671875 -0.6875 -1.671875q0 -0.75 0.375 -1.25q0.375 -0.5 1.078125 -0.6875zm-0.1875 -1.578125q0 0.53125 0.34375 0.875q0.34375 0.34375 0.90625 0.34375q0.53125 0 0.875 -0.328125q0.359375 -0.34375 0.359375 -0.84375q0 -0.515625 -0.359375 -0.859375q-0.359375 -0.359375 -0.890625 -0.359375q-0.53125 0 -0.890625 0.34375q-0.34375 0.34375 -0.34375 0.828125zm-0.3125 3.515625q0 0.40625 0.1875 0.78125q0.203125 0.375 0.578125 0.578125q0.375 0.203125 0.796875 0.203125q0.671875 0 1.109375 -0.421875q0.4375 -0.4375 0.4375 -1.109375q0 -0.671875 -0.453125 -1.109375q-0.453125 -0.453125 -1.125 -0.453125q-0.65625 0 -1.09375 0.4375q-0.4375 0.4375 -0.4375 1.09375z" fill-rule="nonzero"/><path fill="#cfe2f3" d="m264.61285 131.49606l31.24411 0l0 28.97638l-31.24411 0z" fill-rule="evenodd"/><path fill="#000000" d="m278.27716 149.72424l-0.9375 0l0 -5.96875q-0.34375 0.328125 -0.890625 0.65625q-0.546875 0.3125 -0.984375 0.46875l0 -0.90625q0.796875 -0.359375 1.375 -0.890625q0.59375 -0.53125 0.828125 -1.015625l0.609375 0l0 7.65625zm2.5358582 -1.765625l0.90625 -0.078125q0.109375 0.625 0.4375 0.921875q0.328125 0.28125 0.828125 0.28125q0.421875 0 0.75 -0.1875q0.328125 -0.203125 0.53125 -0.53125q0.21875 -0.34375 0.359375 -0.890625q0.140625 -0.5625 0.140625 -1.15625q0 -0.0625 -0.015625 -0.1875q-0.28125 0.453125 -0.765625 0.734375q-0.484375 0.265625 -1.046875 0.265625q-0.953125 0 -1.609375 -0.671875q-0.65625 -0.6875 -0.65625 -1.8125q0 -1.171875 0.6875 -1.875q0.6875 -0.703125 1.71875 -0.703125q0.734375 0 1.34375 0.40625q0.625 0.390625 0.9375 1.140625q0.328125 0.734375 0.328125 2.140625q0 1.453125 -0.3125 2.328125q-0.3125 0.859375 -0.953125 1.3125q-0.625 0.453125 -1.46875 0.453125q-0.890625 0 -1.453125 -0.484375q-0.5625 -0.5 -0.6875 -1.40625zm3.84375 -3.359375q0 -0.8125 -0.4375 -1.28125q-0.421875 -0.484375 -1.03125 -0.484375q-0.625 0 -1.09375 0.515625q-0.453125 0.515625 -0.453125 1.328125q0 0.71875 0.4375 1.1875q0.4375 0.453125 1.078125 0.453125q0.65625 0 1.078125 -0.453125q0.421875 -0.46875 0.421875 -1.265625z" fill-rule="nonzero"/><path fill="#cfe2f3" d="m170.88058 160.47244l31.24408 0l0 28.97638l-31.24408 0z" fill-rule="evenodd"/><path fill="#000000" d="m185.9355 177.79437l0 0.90625l-5.03125 0q-0.015625 -0.34375 0.109375 -0.65625q0.1875 -0.515625 0.609375 -1.015625q0.421875 -0.5 1.234375 -1.140625q1.234375 -1.03125 1.671875 -1.625q0.4375 -0.59375 0.4375 -1.125q0 -0.5625 -0.40625 -0.9375q-0.390625 -0.390625 -1.03125 -0.390625q-0.671875 0 -1.078125 0.40625q-0.40625 0.40625 -0.40625 1.125l-0.96875 -0.09375q0.09375 -1.078125 0.734375 -1.640625q0.65625 -0.5625 1.734375 -0.5625q1.109375 0 1.75 0.609375q0.640625 0.609375 0.640625 1.5q0 0.46875 -0.1875 0.90625q-0.1875 0.4375 -0.625 0.9375q-0.4375 0.484375 -1.453125 1.328125q-0.828125 0.71875 -1.078125 0.96875q-0.234375 0.25 -0.390625 0.5l3.734375 0zm1.0046234 -2.859375q0 -1.34375 0.28125 -2.171875q0.28125 -0.828125 0.828125 -1.265625q0.546875 -0.453125 1.375 -0.453125q0.625 0 1.078125 0.25q0.46875 0.234375 0.765625 0.703125q0.3125 0.46875 0.484375 1.140625q0.171875 0.671875 0.171875 1.796875q0 1.34375 -0.28125 2.171875q-0.28125 0.828125 -0.828125 1.28125q-0.546875 0.4375 -1.390625 0.4375q-1.09375 0 -1.71875 -0.78125q-0.765625 -0.953125 -0.765625 -3.109375zm0.96875 0q0 1.875 0.4375 2.5q0.4375 0.625 1.078125 0.625q0.65625 0 1.09375 -0.625q0.4375 -0.625 0.4375 -2.5q0 -1.875 -0.4375 -2.5q-0.4375 -0.625 -1.09375 -0.625q-0.640625 0 -1.03125 0.546875q-0.484375 0.703125 -0.484375 2.578125z" fill-rule="nonzero"/><path fill="#cfe2f3" d="m202.12466 131.49606l31.244095 0l0 28.97638l-31.244095 0z" fill-rule="evenodd"/><path fill="#000000" d="m215.78897 149.72424l-0.9375 0l0 -5.96875q-0.34375 0.328125 -0.890625 0.65625q-0.546875 0.3125 -0.984375 0.46875l0 -0.90625q0.796875 -0.359375 1.375 -0.890625q0.59375 -0.53125 0.828125 -1.015625l0.609375 0l0 7.65625zm2.4577484 -6.625l0 -0.90625l4.9375 0l0 0.734375q-0.71875 0.765625 -1.4375 2.0625q-0.71875 1.28125 -1.109375 2.640625q-0.28125 0.953125 -0.359375 2.09375l-0.953125 0q0.015625 -0.90625 0.34375 -2.171875q0.34375 -1.28125 0.96875 -2.453125q0.640625 -1.1875 1.34375 -2.0l-3.734375 0z" fill-rule="nonzero"/><path fill="#cfe2f3" d="m233.36876 160.47244l31.244095 0l0 28.97638l-31.244095 0z" fill-rule="evenodd"/><path fill="#000000" d="m248.42369 177.79437l0 0.90625l-5.03125 0q-0.015625 -0.34375 0.109375 -0.65625q0.1875 -0.515625 0.609375 -1.015625q0.421875 -0.5 1.234375 -1.140625q1.234375 -1.03125 1.671875 -1.625q0.4375 -0.59375 0.4375 -1.125q0 -0.5625 -0.40625 -0.9375q-0.390625 -0.390625 -1.03125 -0.390625q-0.671875 0 -1.078125 0.40625q-0.40625 0.40625 -0.40625 1.125l-0.96875 -0.09375q0.09375 -1.078125 0.734375 -1.640625q0.65625 -0.5625 1.734375 -0.5625q1.109375 0 1.75 0.609375q0.640625 0.609375 0.640625 1.5q0 0.46875 -0.1875 0.90625q-0.1875 0.4375 -0.625 0.9375q-0.4375 0.484375 -1.453125 1.328125q-0.828125 0.71875 -1.078125 0.96875q-0.234375 0.25 -0.390625 0.5l3.734375 0zm5.9264984 0l0 0.90625l-5.03125 0q-0.015625 -0.34375 0.109375 -0.65625q0.1875 -0.515625 0.609375 -1.015625q0.421875 -0.5 1.234375 -1.140625q1.234375 -1.03125 1.671875 -1.625q0.4375 -0.59375 0.4375 -1.125q0 -0.5625 -0.40625 -0.9375q-0.390625 -0.390625 -1.03125 -0.390625q-0.671875 0 -1.078125 0.40625q-0.40625 0.40625 -0.40625 1.125l-0.96875 -0.09375q0.09375 -1.078125 0.734375 -1.640625q0.65625 -0.5625 1.734375 -0.5625q1.109375 0 1.75 0.609375q0.640625 0.609375 0.640625 1.5q0 0.46875 -0.1875 0.90625q-0.1875 0.4375 -0.625 0.9375q-0.4375 0.484375 -1.453125 1.328125q-0.828125 0.71875 -1.078125 0.96875q-0.234375 0.25 -0.390625 0.5l3.734375 0z" fill-rule="nonzero"/><path fill="#cfe2f3" d="m264.61285 160.47244l31.24411 0l0 28.97638l-31.24411 0z" fill-rule="evenodd"/><path fill="#000000" d="m279.6678 177.79437l0 0.90625l-5.03125 0q-0.015625 -0.34375 0.109375 -0.65625q0.1875 -0.515625 0.609375 -1.015625q0.421875 -0.5 1.234375 -1.140625q1.234375 -1.03125 1.671875 -1.625q0.4375 -0.59375 0.4375 -1.125q0 -0.5625 -0.40625 -0.9375q-0.390625 -0.390625 -1.03125 -0.390625q-0.671875 0 -1.078125 0.40625q-0.40625 0.40625 -0.40625 1.125l-0.96875 -0.09375q0.09375 -1.078125 0.734375 -1.640625q0.65625 -0.5625 1.734375 -0.5625q1.109375 0 1.75 0.609375q0.640625 0.609375 0.640625 1.5q0 0.46875 -0.1875 0.90625q-0.1875 0.4375 -0.625 0.9375q-0.4375 0.484375 -1.453125 1.328125q-0.828125 0.71875 -1.078125 0.96875q-0.234375 0.25 -0.390625 0.5l3.734375 0zm1.0202332 -1.109375l0.9375 -0.125q0.15625 0.796875 0.546875 1.15625q0.390625 0.34375 0.9375 0.34375q0.65625 0 1.109375 -0.453125q0.46875 -0.46875 0.46875 -1.140625q0 -0.640625 -0.421875 -1.0625q-0.421875 -0.421875 -1.078125 -0.421875q-0.265625 0 -0.65625 0.109375l0.109375 -0.828125q0.09375 0.015625 0.140625 0.015625q0.59375 0 1.078125 -0.3125q0.484375 -0.3125 0.484375 -0.96875q0 -0.515625 -0.359375 -0.84375q-0.34375 -0.34375 -0.890625 -0.34375q-0.546875 0 -0.921875 0.34375q-0.359375 0.34375 -0.453125 1.03125l-0.9375 -0.171875q0.171875 -0.9375 0.78125 -1.453125q0.609375 -0.515625 1.5 -0.515625q0.625 0 1.15625 0.265625q0.53125 0.265625 0.796875 0.734375q0.28125 0.453125 0.28125 0.984375q0 0.484375 -0.265625 0.890625q-0.265625 0.40625 -0.78125 0.65625q0.671875 0.15625 1.046875 0.65625q0.375 0.484375 0.375 1.21875q0 1.0 -0.734375 1.703125q-0.71875 0.6875 -1.828125 0.6875q-1.0 0 -1.671875 -0.59375q-0.65625 -0.609375 -0.75 -1.5625z" fill-rule="nonzero"/><path fill="#cfe2f3" d="m170.88058 15.590551l31.24408 0l0 28.976377l-31.24408 0z" fill-rule="evenodd"/><path fill="#000000" d="m183.97688 30.053114q0 -1.34375 0.28125 -2.171875q0.28125 -0.828125 0.828125 -1.265625q0.546875 -0.453125 1.375 -0.453125q0.625 0 1.078125 0.25q0.46875 0.234375 0.765625 0.703125q0.3125 0.46875 0.484375 1.140625q0.171875 0.671875 0.171875 1.796875q0 1.34375 -0.28125 2.171873q-0.28125 0.828125 -0.828125 1.28125q-0.546875 0.4375 -1.390625 0.4375q-1.09375 0 -1.71875 -0.78125q-0.765625 -0.953125 -0.765625 -3.109373zm0.96875 0q0 1.875 0.4375 2.499998q0.4375 0.625 1.078125 0.625q0.65625 0 1.09375 -0.625q0.4375 -0.6249981 0.4375 -2.499998q0 -1.875 -0.4375 -2.5q-0.4375 -0.625 -1.09375 -0.625q-0.640625 0 -1.03125 0.546875q-0.484375 0.703125 -0.484375 2.578125z" fill-rule="nonzero"/><path fill="#cfe2f3" d="m202.12466 160.47244l31.244095 0l0 28.97638l-31.244095 0z" fill-rule="evenodd"/><path fill="#000000" d="m217.1796 177.79437l0 0.90625l-5.03125 0q-0.015625 -0.34375 0.109375 -0.65625q0.1875 -0.515625 0.609375 -1.015625q0.421875 -0.5 1.234375 -1.140625q1.234375 -1.03125 1.671875 -1.625q0.4375 -0.59375 0.4375 -1.125q0 -0.5625 -0.40625 -0.9375q-0.390625 -0.390625 -1.03125 -0.390625q-0.671875 0 -1.078125 0.40625q-0.40625 0.40625 -0.40625 1.125l-0.96875 -0.09375q0.09375 -1.078125 0.734375 -1.640625q0.65625 -0.5625 1.734375 -0.5625q1.109375 0 1.75 0.609375q0.640625 0.609375 0.640625 1.5q0 0.46875 -0.1875 0.90625q-0.1875 0.4375 -0.625 0.9375q-0.4375 0.484375 -1.453125 1.328125q-0.828125 0.71875 -1.078125 0.96875q-0.234375 0.25 -0.390625 0.5l3.734375 0zm4.5358734 0.90625l-0.9375 0l0 -5.96875q-0.34375 0.328125 -0.890625 0.65625q-0.546875 0.3125 -0.984375 0.46875l0 -0.90625q0.796875 -0.359375 1.375 -0.890625q0.59375 -0.53125 0.828125 -1.015625l0.609375 0l0 7.65625z" fill-rule="nonzero"/><path fill="#ffffff" fill-opacity="0.7455" d="m170.8819 131.49869l124.97638 0l0 57.95276l-124.97638 0z" fill-rule="evenodd"/><path fill="#cfe2f3" d="m42.114174 15.590551l31.244095 0l0 28.976377l-31.244095 0z" fill-rule="evenodd"/><path stroke="#666666" stroke-width="1.0" stroke-linejoin="round" stroke-linecap="butt" d="m42.114174 15.590551l31.244095 0l0 28.976377l-31.244095 0z" fill-rule="evenodd"/><path fill="#000000" d="m58.741722 33.818737l-0.9375 0l0 -5.968748q-0.34375 0.328125 -0.890625 0.65625q-0.546875 0.3125 -0.984375 0.46875l0 -0.90625q0.796875 -0.359375 1.375 -0.890625q0.59375 -0.53125 0.828125 -1.015625l0.609375 0l0 7.656248z" fill-rule="nonzero"/><path fill="#cfe2f3" d="m73.35827 15.590551l31.244095 0l0 28.976377l-31.244095 0z" fill-rule="evenodd"/><path stroke="#666666" stroke-width="1.0" stroke-linejoin="round" stroke-linecap="butt" d="m73.35827 15.590551l31.244095 0l0 28.976377l-31.244095 0z" fill-rule="evenodd"/><path fill="#000000" d="m91.37644 32.912487l0 0.90625l-5.03125 0q-0.015625 -0.34375 0.109375 -0.65625q0.1875 -0.515625 0.609375 -1.015625q0.421875 -0.4999981 1.234375 -1.1406231q1.234375 -1.03125 1.671875 -1.625q0.4375 -0.59375 0.4375 -1.125q0 -0.5625 -0.40625 -0.9375q-0.390625 -0.390625 -1.03125 -0.390625q-0.671875 0 -1.078125 0.40625q-0.40625 0.40625 -0.40625 1.125l-0.96875 -0.09375q0.09375 -1.078125 0.734375 -1.640625q0.65625 -0.5625 1.734375 -0.5625q1.109375 0 1.75 0.609375q0.640625 0.609375 0.640625 1.5q0 0.46875 -0.1875 0.90625q-0.1875 0.4375 -0.625 0.9375q-0.4375 0.484375 -1.453125 1.328125q-0.828125 0.7187481 -1.078125 0.9687481q-0.234375 0.25 -0.390625 0.5l3.734375 0z" fill-rule="nonzero"/><path fill="#cfe2f3" d="m104.60236 15.590551l31.244087 0l0 28.976377l-31.244087 0z" fill-rule="evenodd"/><path stroke="#666666" stroke-width="1.0" stroke-linejoin="round" stroke-linecap="butt" d="m104.60236 15.590551l31.244087 0l0 28.976377l-31.244087 0z" fill-rule="evenodd"/><path fill="#000000" d="m117.71429 31.803114l0.9375 -0.125q0.15625 0.7968731 0.546875 1.1562481q0.390625 0.34375 0.9375 0.34375q0.65625 0 1.109375 -0.453125q0.46875 -0.46875 0.46875 -1.1406231q0 -0.640625 -0.421875 -1.0625q-0.421875 -0.421875 -1.078125 -0.421875q-0.265625 0 -0.65625 0.109375l0.109375 -0.828125q0.09375 0.015625 0.140625 0.015625q0.59375 0 1.078125 -0.3125q0.484375 -0.3125 0.484375 -0.96875q0 -0.515625 -0.359375 -0.84375q-0.34375 -0.34375 -0.890625 -0.34375q-0.546875 0 -0.921875 0.34375q-0.359375 0.34375 -0.453125 1.03125l-0.9375 -0.171875q0.171875 -0.9375 0.78125 -1.453125q0.609375 -0.515625 1.5 -0.515625q0.625 0 1.15625 0.265625q0.53125 0.265625 0.796875 0.734375q0.28125 0.453125 0.28125 0.984375q0 0.484375 -0.265625 0.890625q-0.265625 0.40625 -0.78125 0.65625q0.671875 0.15625 1.046875 0.65625q0.375 0.484375 0.375 1.21875q0 0.9999981 -0.734375 1.7031231q-0.71875 0.6875 -1.828125 0.6875q-1.0 0 -1.671875 -0.59375q-0.65625 -0.609375 -0.75 -1.5624981z" fill-rule="nonzero"/><path fill="#cfe2f3" d="m10.870079 44.56693l31.244095 0l0 28.976376l-31.244095 0z" fill-rule="evenodd"/><path stroke="#666666" stroke-width="1.0" stroke-linejoin="round" stroke-linecap="butt" d="m10.870079 44.56693l31.244095 0l0 28.976376l-31.244095 0z" fill-rule="evenodd"/><path fill="#000000" d="m26.966377 62.795116l0 -1.828125l-3.296875 0l0 -0.859375l3.46875 -4.9375l0.765625 0l0 4.9375l1.03125 0l0 0.859375l-1.03125 0l0 1.828125l-0.9375 0zm0 -2.6875l0 -3.4375l-2.375 3.4375l2.375 0z" fill-rule="nonzero"/><path fill="#cfe2f3" d="m73.35827 44.56693l31.244095 0l0 28.976376l-31.244095 0z" fill-rule="evenodd"/><path stroke="#666666" stroke-width="1.0" stroke-linejoin="round" stroke-linecap="butt" d="m73.35827 44.56693l31.244095 0l0 28.976376l-31.244095 0z" fill-rule="evenodd"/><path fill="#000000" d="m91.31394 57.02949l-0.921875 0.078125q-0.125 -0.546875 -0.359375 -0.796875q-0.375 -0.40625 -0.9375 -0.40625q-0.4375 0 -0.78125 0.25q-0.4375 0.328125 -0.703125 0.953125q-0.25 0.609375 -0.265625 1.75q0.34375 -0.515625 0.828125 -0.765625q0.5 -0.25 1.03125 -0.25q0.9375 0 1.59375 0.703125q0.65625 0.6875 0.65625 1.765625q0 0.71875 -0.3125 1.34375q-0.3125 0.609375 -0.859375 0.9375q-0.53125 0.328125 -1.21875 0.328125q-1.171875 0 -1.90625 -0.859375q-0.734375 -0.859375 -0.734375 -2.828125q0 -2.21875 0.8125 -3.21875q0.71875 -0.875 1.921875 -0.875q0.890625 0 1.46875 0.5q0.578125 0.5 0.6875 1.390625zm-3.8125 3.296875q0 0.484375 0.203125 0.921875q0.203125 0.4375 0.5625 0.671875q0.375 0.234375 0.78125 0.234375q0.59375 0 1.015625 -0.46875q0.4375 -0.484375 0.4375 -1.3125q0 -0.78125 -0.421875 -1.234375q-0.421875 -0.46875 -1.0625 -0.46875q-0.640625 0 -1.078125 0.46875q-0.4375 0.453125 -0.4375 1.1875z" fill-rule="nonzero"/><path fill="#cfe2f3" d="m104.60236 44.56693l31.244087 0l0 28.976376l-31.244087 0z" fill-rule="evenodd"/><path stroke="#666666" stroke-width="1.0" stroke-linejoin="round" stroke-linecap="butt" d="m104.60236 44.56693l31.244087 0l0 28.976376l-31.244087 0z" fill-rule="evenodd"/><path fill="#000000" d="m117.76116 56.170116l0 -0.90625l4.9375 0l0 0.734375q-0.71875 0.765625 -1.4375 2.0625q-0.71875 1.28125 -1.109375 2.640625q-0.28125 0.953125 -0.359375 2.09375l-0.953125 0q0.015625 -0.90625 0.34375 -2.171875q0.34375 -1.28125 0.96875 -2.453125q0.640625 -1.1875 1.34375 -2.0l-3.734375 0z" fill-rule="nonzero"/><path fill="#cfe2f3" d="m10.870079 73.543304l31.244095 0l0 28.97638l-31.244095 0z" fill-rule="evenodd"/><path fill="#000000" d="m25.419502 87.63087q-0.59375 -0.203125 -0.875 -0.59375q-0.28125 -0.40625 -0.28125 -0.953125q0 -0.84375 0.59375 -1.40625q0.609375 -0.5625 1.59375 -0.5625q1.0 0 1.609375 0.578125q0.609375 0.578125 0.609375 1.40625q0 0.53125 -0.28125 0.9375q-0.265625 0.390625 -0.84375 0.59375q0.703125 0.234375 1.0625 0.75q0.375 0.5 0.375 1.203125q0 0.984375 -0.6875 1.65625q-0.6875 0.65625 -1.828125 0.65625q-1.125 0 -1.8125 -0.65625q-0.6875 -0.671875 -0.6875 -1.671875q0 -0.75 0.375 -1.25q0.375 -0.5 1.078125 -0.6875zm-0.1875 -1.578125q0 0.53125 0.34375 0.875q0.34375 0.34375 0.90625 0.34375q0.53125 0 0.875 -0.328125q0.359375 -0.34375 0.359375 -0.84375q0 -0.515625 -0.359375 -0.859375q-0.359375 -0.359375 -0.890625 -0.359375q-0.53125 0 -0.890625 0.34375q-0.34375 0.34375 -0.34375 0.828125zm-0.3125 3.515625q0 0.40625 0.1875 0.78125q0.203125 0.375 0.578125 0.578125q0.375 0.203125 0.796875 0.203125q0.671875 0 1.109375 -0.421875q0.4375 -0.4375 0.4375 -1.109375q0 -0.671875 -0.453125 -1.109375q-0.453125 -0.453125 -1.125 -0.453125q-0.65625 0 -1.09375 0.4375q-0.4375 0.4375 -0.4375 1.09375z" fill-rule="nonzero"/><path fill="#cfe2f3" d="m42.114174 44.56693l31.244095 0l0 28.976376l-31.244095 0z" fill-rule="evenodd"/><path stroke="#666666" stroke-width="1.0" stroke-linejoin="round" stroke-linecap="butt" d="m42.114174 44.56693l31.244095 0l0 28.976376l-31.244095 0z" fill-rule="evenodd"/><path fill="#000000" d="m55.210472 60.795116l0.984375 -0.078125q0.109375 0.71875 0.5 1.078125q0.40625 0.359375 0.96875 0.359375q0.671875 0 1.140625 -0.5q0.46875 -0.515625 0.46875 -1.359375q0 -0.796875 -0.453125 -1.265625q-0.4375 -0.46875 -1.171875 -0.46875q-0.453125 0 -0.8125 0.21875q-0.359375 0.203125 -0.578125 0.53125l-0.875 -0.125l0.734375 -3.921875l3.796875 0l0 0.90625l-3.046875 0l-0.40625 2.046875q0.6875 -0.484375 1.4375 -0.484375q1.0 0 1.6875 0.703125q0.6875 0.6875 0.6875 1.765625q0 1.046875 -0.609375 1.796875q-0.734375 0.921875 -2.0 0.921875q-1.03125 0 -1.703125 -0.578125q-0.65625 -0.578125 -0.75 -1.546875z" fill-rule="nonzero"/><path fill="#cfe2f3" d="m73.35827 73.543304l31.244095 0l0 28.97638l-31.244095 0z" fill-rule="evenodd"/><path fill="#000000" d="m87.02257 91.77149l-0.9375 0l0 -5.96875q-0.34375 0.328125 -0.890625 0.65625q-0.546875 0.3125 -0.984375 0.46875l0 -0.90625q0.796875 -0.359375 1.375 -0.890625q0.59375 -0.53125 0.828125 -1.015625l0.609375 0l0 7.65625zm2.3952484 -3.765625q0 -1.34375 0.28125 -2.171875q0.28125 -0.828125 0.828125 -1.265625q0.546875 -0.453125 1.375 -0.453125q0.625 0 1.078125 0.25q0.46875 0.234375 0.765625 0.703125q0.3125 0.46875 0.484375 1.140625q0.171875 0.671875 0.171875 1.796875q0 1.34375 -0.28125 2.171875q-0.28125 0.828125 -0.828125 1.28125q-0.546875 0.4375 -1.390625 0.4375q-1.09375 0 -1.71875 -0.78125q-0.765625 -0.953125 -0.765625 -3.109375zm0.96875 0q0 1.875 0.4375 2.5q0.4375 0.625 1.078125 0.625q0.65625 0 1.09375 -0.625q0.4375 -0.625 0.4375 -2.5q0 -1.875 -0.4375 -2.5q-0.4375 -0.625 -1.09375 -0.625q-0.640625 0 -1.03125 0.546875q-0.484375 0.703125 -0.484375 2.578125z" fill-rule="nonzero"/><path fill="#cfe2f3" d="m104.60236 73.543304l31.244087 0l0 28.97638l-31.244087 0z" fill-rule="evenodd"/><path fill="#000000" d="m118.6625 91.77149l-0.9375 0l0 -5.96875q-0.34375 0.328125 -0.890625 0.65625q-0.546875 0.3125 -0.984375 0.46875l0 -0.90625q0.796875 -0.359375 1.375 -0.890625q0.59375 -0.53125 0.828125 -1.015625l0.609375 0l0 7.65625zm5.1348267 0l-0.9375 0l0 -5.96875q-0.34375 0.328125 -0.890625 0.65625q-0.546875 0.3125 -0.984375 0.46875l0 -0.90625q0.796875 -0.359375 1.375 -0.890625q0.59375 -0.53125 0.828125 -1.015625l0.609375 0l0 7.65625z" fill-rule="nonzero"/><path fill="#cfe2f3" d="m10.870079 102.519684l31.244095 0l0 28.97638l-31.244095 0z" fill-rule="evenodd"/><path fill="#000000" d="m24.534378 120.74787l-0.9375 0l0 -5.96875q-0.34375 0.328125 -0.890625 0.65625q-0.546875 0.3125 -0.984375 0.46875l0 -0.90625q0.796875 -0.359375 1.375 -0.890625q0.59375 -0.53125 0.828125 -1.015625l0.609375 0l0 7.65625zm7.3171234 -0.90625l0 0.90625l-5.03125 0q-0.015625 -0.34375 0.109375 -0.65625q0.1875 -0.515625 0.609375 -1.015625q0.421875 -0.5 1.234375 -1.140625q1.234375 -1.03125 1.671875 -1.625q0.4375 -0.59375 0.4375 -1.125q0 -0.5625 -0.40625 -0.9375q-0.390625 -0.390625 -1.03125 -0.390625q-0.671875 0 -1.078125 0.40625q-0.40625 0.40625 -0.40625 1.125l-0.96875 -0.09375q0.09375 -1.078125 0.734375 -1.640625q0.65625 -0.5625 1.734375 -0.5625q1.109375 0 1.75 0.609375q0.640625 0.609375 0.640625 1.5q0 0.46875 -0.1875 0.90625q-0.1875 0.4375 -0.625 0.9375q-0.4375 0.484375 -1.453125 1.328125q-0.828125 0.71875 -1.078125 0.96875q-0.234375 0.25 -0.390625 0.5l3.734375 0z" fill-rule="nonzero"/><path fill="#cfe2f3" d="m42.114174 73.543304l31.244095 0l0 28.97638l-31.244095 0z" fill-rule="evenodd"/><path fill="#000000" d="m55.351097 90.00587l0.90625 -0.078125q0.109375 0.625 0.4375 0.921875q0.328125 0.28125 0.828125 0.28125q0.421875 0 0.75 -0.1875q0.328125 -0.203125 0.53125 -0.53125q0.21875 -0.34375 0.359375 -0.890625q0.140625 -0.5625 0.140625 -1.15625q0 -0.0625 -0.015625 -0.1875q-0.28125 0.453125 -0.765625 0.734375q-0.484375 0.265625 -1.046875 0.265625q-0.953125 0 -1.609375 -0.671875q-0.65625 -0.6875 -0.65625 -1.8125q0 -1.171875 0.6875 -1.875q0.6875 -0.703125 1.71875 -0.703125q0.734375 0 1.34375 0.40625q0.625 0.390625 0.9375 1.140625q0.328125 0.734375 0.328125 2.140625q0 1.453125 -0.3125 2.328125q-0.3125 0.859375 -0.953125 1.3125q-0.625 0.453125 -1.46875 0.453125q-0.890625 0 -1.453125 -0.484375q-0.5625 -0.5 -0.6875 -1.40625zm3.84375 -3.359375q0 -0.8125 -0.4375 -1.28125q-0.421875 -0.484375 -1.03125 -0.484375q-0.625 0 -1.09375 0.515625q-0.453125 0.515625 -0.453125 1.328125q0 0.71875 0.4375 1.1875q0.4375 0.453125 1.078125 0.453125q0.65625 0 1.078125 -0.453125q0.421875 -0.46875 0.421875 -1.265625z" fill-rule="nonzero"/><path fill="#cfe2f3" d="m73.35827 102.519684l31.244095 0l0 28.97638l-31.244095 0z" fill-rule="evenodd"/><path fill="#000000" d="m87.02257 120.74787l-0.9375 0l0 -5.96875q-0.34375 0.328125 -0.890625 0.65625q-0.546875 0.3125 -0.984375 0.46875l0 -0.90625q0.796875 -0.359375 1.375 -0.890625q0.59375 -0.53125 0.828125 -1.015625l0.609375 0l0 7.65625zm5.3952484 0l0 -1.828125l-3.296875 0l0 -0.859375l3.46875 -4.9375l0.765625 0l0 4.9375l1.03125 0l0 0.859375l-1.03125 0l0 1.828125l-0.9375 0zm0 -2.6875l0 -3.4375l-2.375 3.4375l2.375 0z" fill-rule="nonzero"/><path fill="#cfe2f3" d="m104.60236 102.519684l31.244087 0l0 28.97638l-31.244087 0z" fill-rule="evenodd"/><path fill="#000000" d="m118.26666 120.74787l-0.9375 0l0 -5.96875q-0.34375 0.328125 -0.890625 0.65625q-0.546875 0.3125 -0.984375 0.46875l0 -0.90625q0.796875 -0.359375 1.375 -0.890625q0.59375 -0.53125 0.828125 -1.015625l0.609375 0l0 7.65625zm2.3952484 -2.0l0.984375 -0.078125q0.109375 0.71875 0.5 1.078125q0.40625 0.359375 0.96875 0.359375q0.671875 0 1.140625 -0.5q0.46875 -0.515625 0.46875 -1.359375q0 -0.796875 -0.453125 -1.265625q-0.4375 -0.46875 -1.171875 -0.46875q-0.453125 0 -0.8125 0.21875q-0.359375 0.203125 -0.578125 0.53125l-0.875 -0.125l0.734375 -3.921875l3.796875 0l0 0.90625l-3.046875 0l-0.40625 2.046875q0.6875 -0.484375 1.4375 -0.484375q1.0 0 1.6875 0.703125q0.6875 0.6875 0.6875 1.765625q0 1.046875 -0.609375 1.796875q-0.734375 0.921875 -2.0 0.921875q-1.03125 0 -1.703125 -0.578125q-0.65625 -0.578125 -0.75 -1.546875z" fill-rule="nonzero"/><path fill="#cfe2f3" d="m10.870079 131.49606l31.244095 0l0 28.97638l-31.244095 0z" fill-rule="evenodd"/><path fill="#000000" d="m24.534378 149.72424l-0.9375 0l0 -5.96875q-0.34375 0.328125 -0.890625 0.65625q-0.546875 0.3125 -0.984375 0.46875l0 -0.90625q0.796875 -0.359375 1.375 -0.890625q0.59375 -0.53125 0.828125 -1.015625l0.609375 0l0 7.65625zm7.2546234 -5.765625l-0.921875 0.078125q-0.125 -0.546875 -0.359375 -0.796875q-0.375 -0.40625 -0.9375 -0.40625q-0.4375 0 -0.78125 0.25q-0.4375 0.328125 -0.703125 0.953125q-0.25 0.609375 -0.265625 1.75q0.34375 -0.515625 0.828125 -0.765625q0.5 -0.25 1.03125 -0.25q0.9375 0 1.59375 0.703125q0.65625 0.6875 0.65625 1.765625q0 0.71875 -0.3125 1.34375q-0.3125 0.609375 -0.859375 0.9375q-0.53125 0.328125 -1.21875 0.328125q-1.171875 0 -1.90625 -0.859375q-0.734375 -0.859375 -0.734375 -2.828125q0 -2.21875 0.8125 -3.21875q0.71875 -0.875 1.921875 -0.875q0.890625 0 1.46875 0.5q0.578125 0.5 0.6875 1.390625zm-3.8125 3.296875q0 0.484375 0.203125 0.921875q0.203125 0.4375 0.5625 0.671875q0.375 0.234375 0.78125 0.234375q0.59375 0 1.015625 -0.46875q0.4375 -0.484375 0.4375 -1.3125q0 -0.78125 -0.421875 -1.234375q-0.421875 -0.46875 -1.0625 -0.46875q-0.640625 0 -1.078125 0.46875q-0.4375 0.453125 -0.4375 1.1875z" fill-rule="nonzero"/><path fill="#cfe2f3" d="m42.114174 102.519684l31.244095 0l0 28.97638l-31.244095 0z" fill-rule="evenodd"/><path fill="#000000" d="m55.778473 120.74787l-0.9375 0l0 -5.96875q-0.34375 0.328125 -0.890625 0.65625q-0.546875 0.3125 -0.984375 0.46875l0 -0.90625q0.796875 -0.359375 1.375 -0.890625q0.59375 -0.53125 0.828125 -1.015625l0.609375 0l0 7.65625zm2.4108734 -2.015625l0.9375 -0.125q0.15625 0.796875 0.546875 1.15625q0.390625 0.34375 0.9375 0.34375q0.65625 0 1.109375 -0.453125q0.46875 -0.46875 0.46875 -1.140625q0 -0.640625 -0.421875 -1.0625q-0.421875 -0.421875 -1.078125 -0.421875q-0.265625 0 -0.65625 0.109375l0.109375 -0.828125q0.09375 0.015625 0.140625 0.015625q0.59375 0 1.078125 -0.3125q0.484375 -0.3125 0.484375 -0.96875q0 -0.515625 -0.359375 -0.84375q-0.34375 -0.34375 -0.890625 -0.34375q-0.546875 0 -0.921875 0.34375q-0.359375 0.34375 -0.453125 1.03125l-0.9375 -0.171875q0.171875 -0.9375 0.78125 -1.453125q0.609375 -0.515625 1.5 -0.515625q0.625 0 1.15625 0.265625q0.53125 0.265625 0.796875 0.734375q0.28125 0.453125 0.28125 0.984375q0 0.484375 -0.265625 0.890625q-0.265625 0.40625 -0.78125 0.65625q0.671875 0.15625 1.046875 0.65625q0.375 0.484375 0.375 1.21875q0 1.0 -0.734375 1.703125q-0.71875 0.6875 -1.828125 0.6875q-1.0 0 -1.671875 -0.59375q-0.65625 -0.609375 -0.75 -1.5625z" fill-rule="nonzero"/><path fill="#cfe2f3" d="m73.35827 131.49606l31.244095 0l0 28.97638l-31.244095 0z" fill-rule="evenodd"/><path fill="#000000" d="m87.02257 149.72424l-0.9375 0l0 -5.96875q-0.34375 0.328125 -0.890625 0.65625q-0.546875 0.3125 -0.984375 0.46875l0 -0.90625q0.796875 -0.359375 1.375 -0.890625q0.59375 -0.53125 0.828125 -1.015625l0.609375 0l0 7.65625zm3.8483734 -4.140625q-0.59375 -0.203125 -0.875 -0.59375q-0.28125 -0.40625 -0.28125 -0.953125q0 -0.84375 0.59375 -1.40625q0.609375 -0.5625 1.59375 -0.5625q1.0 0 1.609375 0.578125q0.609375 0.578125 0.609375 1.40625q0 0.53125 -0.28125 0.9375q-0.265625 0.390625 -0.84375 0.59375q0.703125 0.234375 1.0625 0.75q0.375 0.5 0.375 1.203125q0 0.984375 -0.6875 1.65625q-0.6875 0.65625 -1.828125 0.65625q-1.125 0 -1.8125 -0.65625q-0.6875 -0.671875 -0.6875 -1.671875q0 -0.75 0.375 -1.25q0.375 -0.5 1.078125 -0.6875zm-0.1875 -1.578125q0 0.53125 0.34375 0.875q0.34375 0.34375 0.90625 0.34375q0.53125 0 0.875 -0.328125q0.359375 -0.34375 0.359375 -0.84375q0 -0.515625 -0.359375 -0.859375q-0.359375 -0.359375 -0.890625 -0.359375q-0.53125 0 -0.890625 0.34375q-0.34375 0.34375 -0.34375 0.828125zm-0.3125 3.515625q0 0.40625 0.1875 0.78125q0.203125 0.375 0.578125 0.578125q0.375 0.203125 0.796875 0.203125q0.671875 0 1.109375 -0.421875q0.4375 -0.4375 0.4375 -1.109375q0 -0.671875 -0.453125 -1.109375q-0.453125 -0.453125 -1.125 -0.453125q-0.65625 0 -1.09375 0.4375q-0.4375 0.4375 -0.4375 1.09375z" fill-rule="nonzero"/><path fill="#cfe2f3" d="m104.60236 131.49606l31.244087 0l0 28.97638l-31.244087 0z" fill-rule="evenodd"/><path fill="#000000" d="m118.26666 149.72424l-0.9375 0l0 -5.96875q-0.34375 0.328125 -0.890625 0.65625q-0.546875 0.3125 -0.984375 0.46875l0 -0.90625q0.796875 -0.359375 1.375 -0.890625q0.59375 -0.53125 0.828125 -1.015625l0.609375 0l0 7.65625zm2.5358734 -1.765625l0.90625 -0.078125q0.109375 0.625 0.4375 0.921875q0.328125 0.28125 0.828125 0.28125q0.421875 0 0.75 -0.1875q0.328125 -0.203125 0.53125 -0.53125q0.21875 -0.34375 0.359375 -0.890625q0.140625 -0.5625 0.140625 -1.15625q0 -0.0625 -0.015625 -0.1875q-0.28125 0.453125 -0.765625 0.734375q-0.484375 0.265625 -1.046875 0.265625q-0.953125 0 -1.609375 -0.671875q-0.65625 -0.6875 -0.65625 -1.8125q0 -1.171875 0.6875 -1.875q0.6875 -0.703125 1.71875 -0.703125q0.734375 0 1.34375 0.40625q0.625 0.390625 0.9375 1.140625q0.328125 0.734375 0.328125 2.140625q0 1.453125 -0.3125 2.328125q-0.3125 0.859375 -0.953125 1.3125q-0.625 0.453125 -1.46875 0.453125q-0.890625 0 -1.453125 -0.484375q-0.5625 -0.5 -0.6875 -1.40625zm3.84375 -3.359375q0 -0.8125 -0.4375 -1.28125q-0.421875 -0.484375 -1.03125 -0.484375q-0.625 0 -1.09375 0.515625q-0.453125 0.515625 -0.453125 1.328125q0 0.71875 0.4375 1.1875q0.4375 0.453125 1.078125 0.453125q0.65625 0 1.078125 -0.453125q0.421875 -0.46875 0.421875 -1.265625z" fill-rule="nonzero"/><path fill="#cfe2f3" d="m10.870079 160.47244l31.244095 0l0 28.97638l-31.244095 0z" fill-rule="evenodd"/><path fill="#000000" d="m25.925003 177.79437l0 0.90625l-5.03125 0q-0.015625 -0.34375 0.109375 -0.65625q0.1875 -0.515625 0.609375 -1.015625q0.421875 -0.5 1.234375 -1.140625q1.234375 -1.03125 1.671875 -1.625q0.4375 -0.59375 0.4375 -1.125q0 -0.5625 -0.40625 -0.9375q-0.390625 -0.390625 -1.03125 -0.390625q-0.671875 0 -1.078125 0.40625q-0.40625 0.40625 -0.40625 1.125l-0.96875 -0.09375q0.09375 -1.078125 0.734375 -1.640625q0.65625 -0.5625 1.734375 -0.5625q1.109375 0 1.75 0.609375q0.640625 0.609375 0.640625 1.5q0 0.46875 -0.1875 0.90625q-0.1875 0.4375 -0.625 0.9375q-0.4375 0.484375 -1.453125 1.328125q-0.828125 0.71875 -1.078125 0.96875q-0.234375 0.25 -0.390625 0.5l3.734375 0zm1.0046234 -2.859375q0 -1.34375 0.28125 -2.171875q0.28125 -0.828125 0.828125 -1.265625q0.546875 -0.453125 1.375 -0.453125q0.625 0 1.078125 0.25q0.46875 0.234375 0.765625 0.703125q0.3125 0.46875 0.484375 1.140625q0.171875 0.671875 0.171875 1.796875q0 1.34375 -0.28125 2.171875q-0.28125 0.828125 -0.828125 1.28125q-0.546875 0.4375 -1.390625 0.4375q-1.09375 0 -1.71875 -0.78125q-0.765625 -0.953125 -0.765625 -3.109375zm0.96875 0q0 1.875 0.4375 2.5q0.4375 0.625 1.078125 0.625q0.65625 0 1.09375 -0.625q0.4375 -0.625 0.4375 -2.5q0 -1.875 -0.4375 -2.5q-0.4375 -0.625 -1.09375 -0.625q-0.640625 0 -1.03125 0.546875q-0.484375 0.703125 -0.484375 2.578125z" fill-rule="nonzero"/><path fill="#cfe2f3" d="m42.114174 131.49606l31.244095 0l0 28.97638l-31.244095 0z" fill-rule="evenodd"/><path fill="#000000" d="m55.778473 149.72424l-0.9375 0l0 -5.96875q-0.34375 0.328125 -0.890625 0.65625q-0.546875 0.3125 -0.984375 0.46875l0 -0.90625q0.796875 -0.359375 1.375 -0.890625q0.59375 -0.53125 0.828125 -1.015625l0.609375 0l0 7.65625zm2.4577484 -6.625l0 -0.90625l4.9375 0l0 0.734375q-0.71875 0.765625 -1.4375 2.0625q-0.71875 1.28125 -1.109375 2.640625q-0.28125 0.953125 -0.359375 2.09375l-0.953125 0q0.015625 -0.90625 0.34375 -2.171875q0.34375 -1.28125 0.96875 -2.453125q0.640625 -1.1875 1.34375 -2.0l-3.734375 0z" fill-rule="nonzero"/><path fill="#cfe2f3" d="m73.35827 160.47244l31.244095 0l0 28.97638l-31.244095 0z" fill-rule="evenodd"/><path fill="#000000" d="m88.41319 177.79437l0 0.90625l-5.03125 0q-0.015625 -0.34375 0.109375 -0.65625q0.1875 -0.515625 0.609375 -1.015625q0.421875 -0.5 1.234375 -1.140625q1.234375 -1.03125 1.671875 -1.625q0.4375 -0.59375 0.4375 -1.125q0 -0.5625 -0.40625 -0.9375q-0.390625 -0.390625 -1.03125 -0.390625q-0.671875 0 -1.078125 0.40625q-0.40625 0.40625 -0.40625 1.125l-0.96875 -0.09375q0.09375 -1.078125 0.734375 -1.640625q0.65625 -0.5625 1.734375 -0.5625q1.109375 0 1.75 0.609375q0.640625 0.609375 0.640625 1.5q0 0.46875 -0.1875 0.90625q-0.1875 0.4375 -0.625 0.9375q-0.4375 0.484375 -1.453125 1.328125q-0.828125 0.71875 -1.078125 0.96875q-0.234375 0.25 -0.390625 0.5l3.734375 0zm5.9264984 0l0 0.90625l-5.03125 0q-0.015625 -0.34375 0.109375 -0.65625q0.1875 -0.515625 0.609375 -1.015625q0.421875 -0.5 1.234375 -1.140625q1.234375 -1.03125 1.671875 -1.625q0.4375 -0.59375 0.4375 -1.125q0 -0.5625 -0.40625 -0.9375q-0.390625 -0.390625 -1.03125 -0.390625q-0.671875 0 -1.078125 0.40625q-0.40625 0.40625 -0.40625 1.125l-0.96875 -0.09375q0.09375 -1.078125 0.734375 -1.640625q0.65625 -0.5625 1.734375 -0.5625q1.109375 0 1.75 0.609375q0.640625 0.609375 0.640625 1.5q0 0.46875 -0.1875 0.90625q-0.1875 0.4375 -0.625 0.9375q-0.4375 0.484375 -1.453125 1.328125q-0.828125 0.71875 -1.078125 0.96875q-0.234375 0.25 -0.390625 0.5l3.734375 0z" fill-rule="nonzero"/><path fill="#cfe2f3" d="m104.60236 160.47244l31.244087 0l0 28.97638l-31.244087 0z" fill-rule="evenodd"/><path fill="#000000" d="m119.65729 177.79437l0 0.90625l-5.03125 0q-0.015625 -0.34375 0.109375 -0.65625q0.1875 -0.515625 0.609375 -1.015625q0.421875 -0.5 1.234375 -1.140625q1.234375 -1.03125 1.671875 -1.625q0.4375 -0.59375 0.4375 -1.125q0 -0.5625 -0.40625 -0.9375q-0.390625 -0.390625 -1.03125 -0.390625q-0.671875 0 -1.078125 0.40625q-0.40625 0.40625 -0.40625 1.125l-0.96875 -0.09375q0.09375 -1.078125 0.734375 -1.640625q0.65625 -0.5625 1.734375 -0.5625q1.109375 0 1.75 0.609375q0.640625 0.609375 0.640625 1.5q0 0.46875 -0.1875 0.90625q-0.1875 0.4375 -0.625 0.9375q-0.4375 0.484375 -1.453125 1.328125q-0.828125 0.71875 -1.078125 0.96875q-0.234375 0.25 -0.390625 0.5l3.734375 0zm1.0202484 -1.109375l0.9375 -0.125q0.15625 0.796875 0.546875 1.15625q0.390625 0.34375 0.9375 0.34375q0.65625 0 1.109375 -0.453125q0.46875 -0.46875 0.46875 -1.140625q0 -0.640625 -0.421875 -1.0625q-0.421875 -0.421875 -1.078125 -0.421875q-0.265625 0 -0.65625 0.109375l0.109375 -0.828125q0.09375 0.015625 0.140625 0.015625q0.59375 0 1.078125 -0.3125q0.484375 -0.3125 0.484375 -0.96875q0 -0.515625 -0.359375 -0.84375q-0.34375 -0.34375 -0.890625 -0.34375q-0.546875 0 -0.921875 0.34375q-0.359375 0.34375 -0.453125 1.03125l-0.9375 -0.171875q0.171875 -0.9375 0.78125 -1.453125q0.609375 -0.515625 1.5 -0.515625q0.625 0 1.15625 0.265625q0.53125 0.265625 0.796875 0.734375q0.28125 0.453125 0.28125 0.984375q0 0.484375 -0.265625 0.890625q-0.265625 0.40625 -0.78125 0.65625q0.671875 0.15625 1.046875 0.65625q0.375 0.484375 0.375 1.21875q0 1.0 -0.734375 1.703125q-0.71875 0.6875 -1.828125 0.6875q-1.0 0 -1.671875 -0.59375q-0.65625 -0.609375 -0.75 -1.5625z" fill-rule="nonzero"/><path fill="#cfe2f3" d="m10.870079 15.590551l31.244095 0l0 28.976377l-31.244095 0z" fill-rule="evenodd"/><path stroke="#666666" stroke-width="1.0" stroke-linejoin="round" stroke-linecap="butt" d="m10.870079 15.590551l31.244095 0l0 28.976377l-31.244095 0z" fill-rule="evenodd"/><path fill="#000000" d="m23.966377 30.053114q0 -1.34375 0.28125 -2.171875q0.28125 -0.828125 0.828125 -1.265625q0.546875 -0.453125 1.375 -0.453125q0.625 0 1.078125 0.25q0.46875 0.234375 0.765625 0.703125q0.3125 0.46875 0.484375 1.140625q0.171875 0.671875 0.171875 1.796875q0 1.34375 -0.28125 2.171873q-0.28125 0.828125 -0.828125 1.28125q-0.546875 0.4375 -1.390625 0.4375q-1.09375 0 -1.71875 -0.78125q-0.765625 -0.953125 -0.765625 -3.109373zm0.96875 0q0 1.875 0.4375 2.499998q0.4375 0.625 1.078125 0.625q0.65625 0 1.09375 -0.625q0.4375 -0.6249981 0.4375 -2.499998q0 -1.875 -0.4375 -2.5q-0.4375 -0.625 -1.09375 -0.625q-0.640625 0 -1.03125 0.546875q-0.484375 0.703125 -0.484375 2.578125z" fill-rule="nonzero"/><path fill="#cfe2f3" d="m42.114174 160.47244l31.244095 0l0 28.97638l-31.244095 0z" fill-rule="evenodd"/><path fill="#000000" d="m57.169098 177.79437l0 0.90625l-5.03125 0q-0.015625 -0.34375 0.109375 -0.65625q0.1875 -0.515625 0.609375 -1.015625q0.421875 -0.5 1.234375 -1.140625q1.234375 -1.03125 1.671875 -1.625q0.4375 -0.59375 0.4375 -1.125q0 -0.5625 -0.40625 -0.9375q-0.390625 -0.390625 -1.03125 -0.390625q-0.671875 0 -1.078125 0.40625q-0.40625 0.40625 -0.40625 1.125l-0.96875 -0.09375q0.09375 -1.078125 0.734375 -1.640625q0.65625 -0.5625 1.734375 -0.5625q1.109375 0 1.75 0.609375q0.640625 0.609375 0.640625 1.5q0 0.46875 -0.1875 0.90625q-0.1875 0.4375 -0.625 0.9375q-0.4375 0.484375 -1.453125 1.328125q-0.828125 0.71875 -1.078125 0.96875q-0.234375 0.25 -0.390625 0.5l3.734375 0zm4.5358734 0.90625l-0.9375 0l0 -5.96875q-0.34375 0.328125 -0.890625 0.65625q-0.546875 0.3125 -0.984375 0.46875l0 -0.90625q0.796875 -0.359375 1.375 -0.890625q0.59375 -0.53125 0.828125 -1.015625l0.609375 0l0 7.65625z" fill-rule="nonzero"/><path fill="#ffffff" fill-opacity="0.7455" d="m10.871391 73.54593l124.97637 0l0 115.90552l-124.97637 0z" fill-rule="evenodd"/><path fill="#ffffff" fill-opacity="0.7455" d="m168.98688 15.593176l126.86615 0l0 57.95275l-126.86615 0z" fill-rule="evenodd"/><path fill="#ffffff" fill-opacity="0.7455" d="m330.8924 15.286089l124.97638 0l0 116.220474l-124.97638 0z" fill-rule="evenodd"/><path fill="#000000" fill-opacity="0.0" d="m5.8097115 3.824147l133.82678 0l0 13.165355l-133.82678 0z" fill-rule="evenodd"/><path fill="#000000" d="m93.632576 13.286824l1.203125 -5.7343755l2.390625 0q0.625 0 0.921875 0.15625q0.3125 0.140625 0.515625 0.48437548q0.203125 0.34375 0.203125 0.765625q0 0.359375 -0.140625 0.734375q-0.140625 0.359375 -0.359375 0.609375q-0.21875 0.234375 -0.453125 0.359375q-0.21875 0.109375 -0.484375 0.171875q-0.546875 0.125 -1.109375 0.125l-1.4375 0l-0.484375 2.328125l-0.765625 0zm1.390625 -2.96875l1.265625 0q0.734375 0 1.078125 -0.15625q0.34375 -0.171875 0.546875 -0.484375q0.203125 -0.328125 0.203125 -0.6875q0 -0.28125 -0.109375 -0.453125q-0.109375 -0.1875 -0.3125 -0.265625q-0.1875 -0.09375 -0.765625 -0.09375l-1.46875 0l-0.4375 2.140625zm3.8671875 2.96875l0.875 -4.15625l0.625 0l-0.1875 0.859375q0.328125 -0.484375 0.625 -0.71875q0.3125 -0.234375 0.640625 -0.234375q0.203125 0 0.515625 0.15625l-0.296875 0.65625q-0.171875 -0.125 -0.390625 -0.125q-0.375 0 -0.765625 0.421875q-0.390625 0.40625 -0.609375 1.46875l-0.359375 1.671875l-0.671875 0zm2.7890625 -1.578125q0 -1.21875 0.71875 -2.015625q0.59375 -0.65625 1.546875 -0.65625q0.75 0 1.203125 0.46875q0.46875 0.46875 0.46875 1.265625q0 0.71875 -0.296875 1.34375q-0.28125 0.609375 -0.828125 0.9375q-0.53125 0.328125 -1.109375 0.328125q-0.484375 0 -0.890625 -0.203125q-0.390625 -0.21875 -0.609375 -0.59375q-0.203125 -0.375 -0.203125 -0.875zm0.703125 -0.0625q0 0.578125 0.28125 0.890625q0.28125 0.296875 0.71875 0.296875q0.234375 0 0.453125 -0.09375q0.21875 -0.09375 0.40625 -0.28125q0.203125 -0.1875 0.328125 -0.421875q0.140625 -0.25 0.21875 -0.515625q0.125 -0.390625 0.125 -0.75q0 -0.5625 -0.28125 -0.875q-0.28125 -0.3125 -0.71875 -0.3125q-0.328125 0 -0.609375 0.171875q-0.265625 0.15625 -0.484375 0.46875q-0.21875 0.296875 -0.328125 0.703125q-0.109375 0.390625 -0.109375 0.71875zm3.5898438 2.015625l0.703125 0.0625q0 0.25 0.0625 0.359375q0.0625 0.125 0.21875 0.203125q0.1875 0.078125 0.484375 0.078125q0.640625 0 0.921875 -0.328125q0.1875 -0.21875 0.34375 -0.96875l0.078125 -0.34375q-0.5625 0.5625 -1.171875 0.5625q-0.640625 0 -1.0625 -0.453125q-0.421875 -0.46875 -0.421875 -1.328125q0 -0.6875 0.328125 -1.265625q0.34375 -0.59375 0.796875 -0.890625q0.46875 -0.3125 0.953125 -0.3125q0.8125 0 1.265625 0.78125l0.140625 -0.6875l0.640625 0l-0.828125 4.015625q-0.140625 0.65625 -0.375 1.015625q-0.21875 0.375 -0.609375 0.578125q-0.390625 0.203125 -0.921875 0.203125q-0.5 0 -0.859375 -0.125q-0.359375 -0.125 -0.546875 -0.375q-0.171875 -0.25 -0.171875 -0.5625q0 -0.109375 0.03125 -0.21875zm0.875 -2.21875q0 0.4375 0.078125 0.640625q0.125 0.3125 0.34375 0.46875q0.21875 0.15625 0.484375 0.15625q0.34375 0 0.6875 -0.234375q0.34375 -0.25 0.546875 -0.765625q0.21875 -0.515625 0.21875 -0.984375q0 -0.5 -0.28125 -0.796875q-0.28125 -0.3125 -0.703125 -0.3125q-0.25 0 -0.5 0.140625q-0.234375 0.140625 -0.453125 0.421875q-0.203125 0.28125 -0.3125 0.671875q-0.109375 0.390625 -0.109375 0.59375zm3.6054688 1.84375l0.875 -4.15625l0.625 0l-0.1875 0.859375q0.328125 -0.484375 0.625 -0.71875q0.3125 -0.234375 0.640625 -0.234375q0.203125 0 0.515625 0.15625l-0.296875 0.65625q-0.171875 -0.125 -0.390625 -0.125q-0.375 0 -0.765625 0.421875q-0.390625 0.40625 -0.609375 1.46875l-0.359375 1.671875l-0.671875 0zm5.4609375 -0.515625q-0.359375 0.3125 -0.703125 0.46875q-0.34375 0.140625 -0.734375 0.140625q-0.5625 0 -0.921875 -0.328125q-0.34375 -0.34375 -0.34375 -0.875q0 -0.34375 0.15625 -0.609375q0.15625 -0.28125 0.40625 -0.4375q0.265625 -0.15625 0.65625 -0.234375q0.234375 -0.046875 0.890625 -0.0625q0.671875 -0.03125 0.96875 -0.15625q0.078125 -0.28125 0.078125 -0.46875q0 -0.25 -0.1875 -0.390625q-0.234375 -0.203125 -0.71875 -0.203125q-0.4375 0 -0.71875 0.203125q-0.28125 0.203125 -0.421875 0.5625l-0.703125 -0.0625q0.21875 -0.625 0.6875 -0.953125q0.46875 -0.328125 1.203125 -0.328125q0.765625 0 1.21875 0.375q0.34375 0.265625 0.34375 0.703125q0 0.34375 -0.109375 0.78125l-0.21875 1.03125q-0.109375 0.484375 -0.109375 0.796875q0 0.1875 0.078125 0.5625l-0.71875 0q-0.046875 -0.203125 -0.078125 -0.515625zm0.265625 -1.59375q-0.15625 0.0625 -0.328125 0.09375q-0.15625 0.03125 -0.5625 0.0625q-0.609375 0.0625 -0.875 0.15625q-0.25 0.078125 -0.375 0.265625q-0.125 0.171875 -0.125 0.390625q0 0.296875 0.203125 0.5q0.203125 0.1875 0.578125 0.1875q0.359375 0 0.671875 -0.1875q0.328125 -0.1875 0.515625 -0.515625q0.1875 -0.328125 0.296875 -0.953125zm1.3867188 2.109375l0.859375 -4.15625l0.71875 0l-0.15625 0.6875q0.40625 -0.4375 0.703125 -0.609375q0.3125 -0.171875 0.6875 -0.171875q0.375 0 0.640625 0.21875q0.265625 0.203125 0.34375 0.5625q0.3125 -0.390625 0.65625 -0.578125q0.359375 -0.203125 0.75 -0.203125q0.515625 0 0.765625 0.25q0.265625 0.25 0.265625 0.6875q0 0.203125 -0.09375 0.640625l-0.546875 2.671875l-0.71875 0l0.578125 -2.75q0.078125 -0.328125 0.078125 -0.46875q0 -0.203125 -0.140625 -0.3125q-0.125 -0.125 -0.359375 -0.125q-0.3125 0 -0.640625 0.1875q-0.328125 0.1875 -0.515625 0.5q-0.171875 0.3125 -0.3125 0.953125l-0.421875 2.015625l-0.703125 0l0.578125 -2.796875q0.0625 -0.296875 0.0625 -0.40625q0 -0.203125 -0.125 -0.328125q-0.125 -0.125 -0.328125 -0.125q-0.296875 0 -0.640625 0.1875q-0.328125 0.1875 -0.53125 0.53125q-0.203125 0.34375 -0.34375 0.96875l-0.40625 1.96875l-0.703125 0zm9.183594 -1.875q0 -0.734375 0.21875 -1.484375q0.21875 -0.75 0.484375 -1.1875q0.265625 -0.453125 0.546875 -0.703125q0.29688263 -0.26562548 0.5625076 -0.37500048q0.28125 -0.125 0.609375 -0.125q0.65625 0 1.09375 0.48437548q0.453125 0.484375 0.453125 1.40625q0 0.953125 -0.3125 1.890625q-0.359375 1.09375 -1.0 1.640625q-0.484375 0.421875 -1.125 0.421875q-0.6406326 0 -1.0937576 -0.5q-0.4375 -0.515625 -0.4375 -1.46875zm0.6875 0.171875q0 0.53125 0.171875 0.828125q0.25 0.40625 0.7187576 0.40625q0.40625 0 0.734375 -0.375q0.484375 -0.515625 0.734375 -1.515625q0.25 -1.015625 0.25 -1.65625q0 -0.625 -0.25 -0.890625q-0.234375 -0.28125 -0.609375 -0.28125q-0.28125 0 -0.53125 0.15625q-0.25 0.140625 -0.46875 0.484375q-0.31250763 0.5 -0.5468826 1.484375q-0.203125 0.84375 -0.203125 1.359375z" fill-rule="nonzero"/><path fill="#000000" fill-opacity="0.0" d="m165.50525 60.74803l133.82678 0l0 13.165352l-133.82678 0z" fill-rule="evenodd"/><path fill="#000000" d="m253.32812 70.21071l1.203125 -5.734375l2.390625 0q0.625 0 0.921875 0.15625q0.3125 0.140625 0.515625 0.484375q0.203125 0.34375 0.203125 0.765625q0 0.359375 -0.140625 0.734375q-0.140625 0.359375 -0.359375 0.609375q-0.21875 0.234375 -0.453125 0.359375q-0.21875 0.109375 -0.484375 0.171875q-0.546875 0.125 -1.109375 0.125l-1.4375 0l-0.484375 2.328125l-0.765625 0zm1.390625 -2.96875l1.265625 0q0.734375 0 1.078125 -0.15625q0.34375 -0.171875 0.546875 -0.484375q0.203125 -0.328125 0.203125 -0.6875q0 -0.28125 -0.109375 -0.453125q-0.109375 -0.1875 -0.3125 -0.265625q-0.1875 -0.09375 -0.765625 -0.09375l-1.46875 0l-0.4375 2.140625zm3.8671875 2.96875l0.875 -4.15625l0.625 0l-0.1875 0.859375q0.328125 -0.484375 0.625 -0.71875q0.3125 -0.234375 0.640625 -0.234375q0.203125 0 0.515625 0.15625l-0.296875 0.65625q-0.171875 -0.125 -0.390625 -0.125q-0.375 0 -0.765625 0.421875q-0.390625 0.40625 -0.609375 1.46875l-0.359375 1.671875l-0.671875 0zm2.7890625 -1.578125q0 -1.21875 0.71875 -2.015625q0.59375 -0.65625 1.546875 -0.65625q0.75 0 1.203125 0.46875q0.46875 0.46875 0.46875 1.265625q0 0.71875 -0.296875 1.34375q-0.28125 0.609375 -0.828125 0.9375q-0.53125 0.328125 -1.109375 0.328125q-0.484375 0 -0.890625 -0.203125q-0.390625 -0.21875 -0.609375 -0.59375q-0.203125 -0.375 -0.203125 -0.875zm0.703125 -0.0625q0 0.578125 0.28125 0.890625q0.28125 0.296875 0.71875 0.296875q0.234375 0 0.453125 -0.09375q0.21875 -0.09375 0.40625 -0.28125q0.203125 -0.1875 0.328125 -0.421875q0.140625 -0.25 0.21875 -0.515625q0.125 -0.390625 0.125 -0.75q0 -0.5625 -0.28125 -0.875q-0.28125 -0.3125 -0.71875 -0.3125q-0.328125 0 -0.609375 0.171875q-0.265625 0.15625 -0.484375 0.46875q-0.21875 0.296875 -0.328125 0.703125q-0.109375 0.390625 -0.109375 0.71875zm3.5898438 2.015625l0.703125 0.0625q0 0.25 0.0625 0.359375q0.0625 0.125 0.21875 0.203125q0.1875 0.078125 0.484375 0.078125q0.640625 0 0.921875 -0.328125q0.1875 -0.21875 0.34375 -0.96875l0.078125 -0.34375q-0.5625 0.5625 -1.171875 0.5625q-0.640625 0 -1.0625 -0.453125q-0.421875 -0.46875 -0.421875 -1.328125q0 -0.6875 0.328125 -1.265625q0.34375 -0.59375 0.796875 -0.890625q0.46875 -0.3125 0.953125 -0.3125q0.8125 0 1.265625 0.78125l0.140625 -0.6875l0.640625 0l-0.828125 4.015625q-0.140625 0.65625 -0.375 1.015625q-0.21875 0.375 -0.609375 0.578125q-0.390625 0.203125 -0.921875 0.203125q-0.5 0 -0.859375 -0.125q-0.359375 -0.125 -0.546875 -0.375q-0.171875 -0.25 -0.171875 -0.5625q0 -0.109375 0.03125 -0.21875zm0.875 -2.21875q0 0.4375 0.078125 0.640625q0.125 0.3125 0.34375 0.46875q0.21875 0.15625 0.484375 0.15625q0.34375 0 0.6875 -0.234375q0.34375 -0.25 0.546875 -0.765625q0.21875 -0.515625 0.21875 -0.984375q0 -0.5 -0.28125 -0.796875q-0.28125 -0.3125 -0.703125 -0.3125q-0.25 0 -0.5 0.140625q-0.234375 0.140625 -0.453125 0.421875q-0.203125 0.28125 -0.3125 0.671875q-0.109375 0.390625 -0.109375 0.59375zm3.6054688 1.84375l0.875 -4.15625l0.625 0l-0.1875 0.859375q0.328125 -0.484375 0.625 -0.71875q0.3125 -0.234375 0.640625 -0.234375q0.203125 0 0.515625 0.15625l-0.296875 0.65625q-0.171875 -0.125 -0.390625 -0.125q-0.375 0 -0.765625 0.421875q-0.390625 0.40625 -0.609375 1.46875l-0.359375 1.671875l-0.671875 0zm5.4609375 -0.515625q-0.359375 0.3125 -0.703125 0.46875q-0.34375 0.140625 -0.734375 0.140625q-0.5625 0 -0.921875 -0.328125q-0.34375 -0.34375 -0.34375 -0.875q0 -0.34375 0.15625 -0.609375q0.15625 -0.28125 0.40625 -0.4375q0.265625 -0.15625 0.65625 -0.234375q0.234375 -0.046875 0.890625 -0.0625q0.671875 -0.03125 0.96875 -0.15625q0.078125 -0.28125 0.078125 -0.46875q0 -0.25 -0.1875 -0.390625q-0.234375 -0.203125 -0.71875 -0.203125q-0.4375 0 -0.71875 0.203125q-0.28125 0.203125 -0.421875 0.5625l-0.703125 -0.0625q0.21875 -0.625 0.6875 -0.953125q0.46875 -0.328125 1.203125 -0.328125q0.765625 0 1.21875 0.375q0.34375 0.265625 0.34375 0.703125q0 0.34375 -0.109375 0.78125l-0.21875 1.03125q-0.109375 0.484375 -0.109375 0.796875q0 0.1875 0.078125 0.5625l-0.71875 0q-0.046875 -0.203125 -0.078125 -0.515625zm0.265625 -1.59375q-0.15625 0.0625 -0.328125 0.09375q-0.15625 0.03125 -0.5625 0.0625q-0.609375 0.0625 -0.875 0.15625q-0.25 0.078125 -0.375 0.265625q-0.125 0.171875 -0.125 0.390625q0 0.296875 0.203125 0.5q0.203125 0.1875 0.578125 0.1875q0.359375 0 0.671875 -0.1875q0.328125 -0.1875 0.515625 -0.515625q0.1875 -0.328125 0.296875 -0.953125zm1.3867188 2.109375l0.859375 -4.15625l0.71875 0l-0.15625 0.6875q0.40625 -0.4375 0.703125 -0.609375q0.3125 -0.171875 0.6875 -0.171875q0.375 0 0.640625 0.21875q0.265625 0.203125 0.34375 0.5625q0.3125 -0.390625 0.65625 -0.578125q0.359375 -0.203125 0.75 -0.203125q0.515625 0 0.765625 0.25q0.265625 0.25 0.265625 0.6875q0 0.203125 -0.09375 0.640625l-0.546875 2.671875l-0.71875 0l0.578125 -2.75q0.078125 -0.328125 0.078125 -0.46875q0 -0.203125 -0.140625 -0.3125q-0.125 -0.125 -0.359375 -0.125q-0.3125 0 -0.640625 0.1875q-0.328125 0.1875 -0.515625 0.5q-0.171875 0.3125 -0.3125 0.953125l-0.421875 2.015625l-0.703125 0l0.578125 -2.796875q0.0625 -0.296875 0.0625 -0.40625q0 -0.203125 -0.125 -0.328125q-0.125 -0.125 -0.328125 -0.125q-0.296875 0 -0.640625 0.1875q-0.328125 0.1875 -0.53125 0.53125q-0.203125 0.34375 -0.34375 0.96875l-0.40625 1.96875l-0.703125 0zm10.542969 0l0.90625 -4.328125q-0.578125 0.46875 -1.640625 0.734375l0.125 -0.640625q0.53125 -0.203125 1.046875 -0.546875q0.515625 -0.34375 0.765625 -0.59375q0.15625 -0.15625 0.296875 -0.375l0.421875 0l-1.203125 5.75l-0.71875 0z" fill-rule="nonzero"/><path fill="#000000" fill-opacity="0.0" d="m324.96194 118.46982l133.82678 0l0 13.1653595l-133.82678 0z" fill-rule="evenodd"/><path fill="#000000" d="m412.78482 127.932495l1.203125 -5.734375l2.390625 0q0.625 0 0.921875 0.15625q0.3125 0.140625 0.515625 0.484375q0.203125 0.34375 0.203125 0.765625q0 0.359375 -0.140625 0.734375q-0.140625 0.359375 -0.359375 0.609375q-0.21875 0.234375 -0.453125 0.359375q-0.21875 0.109375 -0.484375 0.171875q-0.546875 0.125 -1.109375 0.125l-1.4375 0l-0.484375 2.328125l-0.765625 0zm1.390625 -2.96875l1.265625 0q0.734375 0 1.078125 -0.15625q0.34375 -0.171875 0.546875 -0.484375q0.203125 -0.328125 0.203125 -0.6875q0 -0.28125 -0.109375 -0.453125q-0.109375 -0.1875 -0.3125 -0.265625q-0.1875 -0.09375 -0.765625 -0.09375l-1.46875 0l-0.4375 2.140625zm3.8671875 2.96875l0.875 -4.15625l0.625 0l-0.1875 0.859375q0.328125 -0.484375 0.625 -0.71875q0.3125 -0.234375 0.640625 -0.234375q0.203125 0 0.515625 0.15625l-0.296875 0.65625q-0.171875 -0.125 -0.390625 -0.125q-0.375 0 -0.765625 0.421875q-0.390625 0.40625 -0.609375 1.46875l-0.359375 1.671875l-0.671875 0zm2.7890625 -1.578125q0 -1.21875 0.71875 -2.015625q0.59375 -0.65625 1.546875 -0.65625q0.75 0 1.203125 0.46875q0.46875 0.46875 0.46875 1.265625q0 0.71875 -0.296875 1.34375q-0.28125 0.609375 -0.828125 0.9375q-0.53125 0.328125 -1.109375 0.328125q-0.484375 0 -0.890625 -0.203125q-0.390625 -0.21875 -0.609375 -0.59375q-0.203125 -0.375 -0.203125 -0.875zm0.703125 -0.0625q0 0.578125 0.28125 0.890625q0.28125 0.296875 0.71875 0.296875q0.234375 0 0.453125 -0.09375q0.21875 -0.09375 0.40625 -0.28125q0.203125 -0.1875 0.328125 -0.421875q0.140625 -0.25 0.21875 -0.515625q0.125 -0.390625 0.125 -0.75q0 -0.5625 -0.28125 -0.875q-0.28125 -0.3125 -0.71875 -0.3125q-0.328125 0 -0.609375 0.171875q-0.265625 0.15625 -0.484375 0.46875q-0.21875 0.296875 -0.328125 0.703125q-0.109375 0.390625 -0.109375 0.71875zm3.5898438 2.015625l0.703125 0.0625q0 0.25 0.0625 0.359375q0.0625 0.125 0.21875 0.203125q0.1875 0.078125 0.484375 0.078125q0.640625 0 0.921875 -0.328125q0.1875 -0.21875 0.34375 -0.96875l0.078125 -0.34375q-0.5625 0.5625 -1.171875 0.5625q-0.640625 0 -1.0625 -0.453125q-0.421875 -0.46875 -0.421875 -1.328125q0 -0.6875 0.328125 -1.265625q0.34375 -0.59375 0.796875 -0.890625q0.46875 -0.3125 0.953125 -0.3125q0.8125 0 1.265625 0.78125l0.140625 -0.6875l0.640625 0l-0.828125 4.015625q-0.140625 0.65625 -0.375 1.015625q-0.21875 0.375 -0.609375 0.578125q-0.390625 0.203125 -0.921875 0.203125q-0.5 0 -0.859375 -0.125q-0.359375 -0.125 -0.546875 -0.375q-0.171875 -0.25 -0.171875 -0.5625q0 -0.109375 0.03125 -0.21875zm0.875 -2.21875q0 0.4375 0.078125 0.640625q0.125 0.3125 0.34375 0.46875q0.21875 0.15625 0.484375 0.15625q0.34375 0 0.6875 -0.234375q0.34375 -0.25 0.546875 -0.765625q0.21875 -0.515625 0.21875 -0.984375q0 -0.5 -0.28125 -0.796875q-0.28125 -0.3125 -0.703125 -0.3125q-0.25 0 -0.5 0.140625q-0.234375 0.140625 -0.453125 0.421875q-0.203125 0.28125 -0.3125 0.671875q-0.109375 0.390625 -0.109375 0.59375zm3.6054688 1.84375l0.875 -4.15625l0.625 0l-0.1875 0.859375q0.328125 -0.484375 0.625 -0.71875q0.3125 -0.234375 0.640625 -0.234375q0.203125 0 0.515625 0.15625l-0.296875 0.65625q-0.171875 -0.125 -0.390625 -0.125q-0.375 0 -0.765625 0.421875q-0.390625 0.40625 -0.609375 1.46875l-0.359375 1.671875l-0.671875 0zm5.4609375 -0.515625q-0.359375 0.3125 -0.703125 0.46875q-0.34375 0.140625 -0.734375 0.140625q-0.5625 0 -0.921875 -0.328125q-0.34375 -0.34375 -0.34375 -0.875q0 -0.34375 0.15625 -0.609375q0.15625 -0.28125 0.40625 -0.4375q0.265625 -0.15625 0.65625 -0.234375q0.234375 -0.046875 0.890625 -0.0625q0.671875 -0.03125 0.96875 -0.15625q0.078125 -0.28125 0.078125 -0.46875q0 -0.25 -0.1875 -0.390625q-0.234375 -0.203125 -0.71875 -0.203125q-0.4375 0 -0.71875 0.203125q-0.28125 0.203125 -0.421875 0.5625l-0.703125 -0.0625q0.21875 -0.625 0.6875 -0.953125q0.46875 -0.328125 1.203125 -0.328125q0.765625 0 1.21875 0.375q0.34375 0.265625 0.34375 0.703125q0 0.34375 -0.109375 0.78125l-0.21875 1.03125q-0.109375 0.484375 -0.109375 0.796875q0 0.1875 0.078125 0.5625l-0.71875 0q-0.046875 -0.203125 -0.078125 -0.515625zm0.265625 -1.59375q-0.15625 0.0625 -0.328125 0.09375q-0.15625 0.03125 -0.5625 0.0625q-0.609375 0.0625 -0.875 0.15625q-0.25 0.078125 -0.375 0.265625q-0.125 0.171875 -0.125 0.390625q0 0.296875 0.203125 0.5q0.203125 0.1875 0.578125 0.1875q0.359375 0 0.671875 -0.1875q0.328125 -0.1875 0.515625 -0.515625q0.1875 -0.328125 0.296875 -0.953125zm1.3867188 2.109375l0.859375 -4.15625l0.71875 0l-0.15625 0.6875q0.40625 -0.4375 0.703125 -0.609375q0.3125 -0.171875 0.6875 -0.171875q0.375 0 0.640625 0.21875q0.265625 0.203125 0.34375 0.5625q0.3125 -0.390625 0.65625 -0.578125q0.359375 -0.203125 0.75 -0.203125q0.515625 0 0.765625 0.25q0.265625 0.25 0.265625 0.6875q0 0.203125 -0.09375 0.640625l-0.546875 2.671875l-0.71875 0l0.578125 -2.75q0.078125 -0.328125 0.078125 -0.46875q0 -0.203125 -0.140625 -0.3125q-0.125 -0.125 -0.359375 -0.125q-0.3125 0 -0.640625 0.1875q-0.328125 0.1875 -0.515625 0.5q-0.171875 0.3125 -0.3125 0.953125l-0.421875 2.015625l-0.703125 0l0.578125 -2.796875q0.0625 -0.296875 0.0625 -0.40625q0 -0.203125 -0.125 -0.328125q-0.125 -0.125 -0.328125 -0.125q-0.296875 0 -0.640625 0.1875q-0.328125 0.1875 -0.53125 0.53125q-0.203125 0.34375 -0.34375 0.96875l-0.40625 1.96875l-0.703125 0zm9.089844 0q0.109375 -0.515625 0.296875 -0.859375q0.203125 -0.34375 0.515625 -0.65625q0.328125 -0.3125 1.234375 -1.046875q0.5625 -0.4375 0.765625 -0.640625q0.296875 -0.3125 0.421875 -0.609375q0.09375 -0.1875 0.09375 -0.421875q0 -0.40625 -0.28125 -0.671875q-0.28125 -0.28125 -0.6875 -0.28125q-0.40625 0 -0.703125 0.28125q-0.296875 0.28125 -0.421875 0.890625l-0.703125 -0.09375q0.109375 -0.765625 0.59375 -1.203125q0.5 -0.4375 1.21875 -0.4375q0.5 0 0.890625 0.203125q0.390625 0.203125 0.59375 0.578125q0.203125 0.359375 0.203125 0.75q0 0.5625 -0.40625 1.09375q-0.25 0.328125 -1.46875 1.296875q-0.53125 0.40625 -0.78125 0.671875q-0.25 0.265625 -0.390625 0.5l2.5625 0l-0.125 0.65625l-3.421875 0z" fill-rule="nonzero"/><path fill="#000000" fill-opacity="0.0" d="m5.8110237 15.46745l0 0c0 -7.1349077 5.783985 -12.918894 12.918894 -12.918894l107.98898 0c3.4263 0 6.7122803 1.361094 9.13504 3.7838564c2.42276 2.4227629 3.7838593 5.7087336 3.7838593 9.135037l0 51.674023c0 7.1349106 -5.7839966 12.918892 -12.9189 12.918892l-107.98898 0c-7.1349087 0 -12.918894 -5.7839813 -12.918894 -12.918892z" fill-rule="evenodd"/><path stroke="#666666" stroke-width="1.0" stroke-linejoin="round" stroke-linecap="butt" d="m5.8110237 15.46745l0 0c0 -7.1349077 5.783985 -12.918894 12.918894 -12.918894l107.98898 0c3.4263 0 6.7122803 1.361094 9.13504 3.7838564c2.42276 2.4227629 3.7838593 5.7087336 3.7838593 9.135037l0 51.674023c0 7.1349106 -5.7839966 12.918892 -12.9189 12.918892l-107.98898 0c-7.1349087 0 -12.918894 -5.7839813 -12.918894 -12.918892z" fill-rule="evenodd"/><path fill="#000000" fill-opacity="0.0" d="m165.50656 72.391335l0 0c0 -7.1349106 5.7839813 -12.918892 12.9189 -12.918892l107.98897 0c3.4263 0 6.7122803 1.3610916 9.13504 3.7838554c2.42276 2.4227638 3.7838745 5.7087364 3.7838745 9.135036l0 51.674026c0 7.1349106 -5.7839966 12.918892 -12.918915 12.918892l-107.98897 0c-7.134918 0 -12.9189 -5.7839813 -12.9189 -12.918892z" fill-rule="evenodd"/><path stroke="#666666" stroke-width="1.0" stroke-linejoin="round" stroke-linecap="butt" d="m165.50656 72.391335l0 0c0 -7.1349106 5.7839813 -12.918892 12.9189 -12.918892l107.98897 0c3.4263 0 6.7122803 1.3610916 9.13504 3.7838554c2.42276 2.4227638 3.7838745 5.7087364 3.7838745 9.135036l0 51.674026c0 7.1349106 -5.7839966 12.918892 -12.918915 12.918892l-107.98897 0c-7.134918 0 -12.9189 -5.7839813 -12.9189 -12.918892z" fill-rule="evenodd"/><path fill="#000000" fill-opacity="0.0" d="m324.96326 130.11311l0 0c0 -7.134903 5.7839966 -12.918884 12.918884 -12.918884l107.98898 0c3.4263 0 6.7122803 1.3610916 9.13504 3.7838516c2.42276 2.42276 3.7838745 5.7087326 3.7838745 9.135033l0 51.674026c0 7.134918 -5.7839966 12.9189 -12.918915 12.9189l-107.98898 0c-7.1348877 0 -12.918884 -5.7839813 -12.918884 -12.9189z" fill-rule="evenodd"/><path stroke="#666666" stroke-width="1.0" stroke-linejoin="round" stroke-linecap="butt" d="m324.96326 130.11311l0 0c0 -7.134903 5.7839966 -12.918884 12.918884 -12.918884l107.98898 0c3.4263 0 6.7122803 1.3610916 9.13504 3.7838516c2.42276 2.42276 3.7838745 5.7087326 3.7838745 9.135033l0 51.674026c0 7.134918 -5.7839966 12.9189 -12.918915 12.9189l-107.98898 0c-7.1348877 0 -12.918884 -5.7839813 -12.918884 -12.9189z" fill-rule="evenodd"/></g></svg>